<mxfile host="app.diagrams.net" modified="2022-05-23T04:53:23.820Z" agent="5.0 (Windows NT 10.0; Win64; x64) AppleWebKit/537.36 (KHTML, like Gecko) Chrome/101.0.4951.67 Safari/537.36" etag="-4p_t4-6MgQDy_AcU0hd" version="18.1.1" type="github">
  <diagram id="6a731a19-8d31-9384-78a2-239565b7b9f0" name="Page-1">
    <mxGraphModel dx="6846" dy="2117" grid="0" gridSize="10" guides="1" tooltips="1" connect="1" arrows="1" fold="1" page="1" pageScale="1" pageWidth="1169" pageHeight="827" background="none" math="0" shadow="0">
      <root>
        <mxCell id="0" />
        <mxCell id="1" parent="0" />
        <mxCell id="1350" value="&lt;font style=&quot;font-size: 12px;&quot;&gt;apa itu?&lt;/font&gt;&lt;br&gt;I. Pengawasan Internal" style="ellipse;whiteSpace=wrap;html=1;shadow=0;fontFamily=Helvetica;fontSize=20;fontColor=#000000;align=center;strokeWidth=3;fillColor=#1699D3;strokeColor=none;" parent="1" vertex="1">
          <mxGeometry x="-988.25" y="-476.75" width="153.5" height="151.5" as="geometry" />
        </mxCell>
        <mxCell id="1351" value="II. Tugas dan Wewenang Penanggung Jawab" style="ellipse;whiteSpace=wrap;html=1;shadow=0;fontFamily=Helvetica;fontSize=20;fontColor=#000000;align=center;strokeWidth=3;fillColor=#F08705;strokeColor=none;gradientColor=none;" parent="1" vertex="1">
          <mxGeometry x="-730" y="-90" width="170" height="170" as="geometry" />
        </mxCell>
        <mxCell id="1352" value="III. Sistem Informasi Pengawas Internal" style="ellipse;whiteSpace=wrap;html=1;shadow=0;fontFamily=Helvetica;fontSize=20;fontColor=#000000;align=center;strokeWidth=3;fillColor=#E85642;strokeColor=none;" parent="1" vertex="1">
          <mxGeometry x="-830" y="502.15999999999997" width="150" height="150" as="geometry" />
        </mxCell>
        <mxCell id="1354" value="Bacteria" style="ellipse;whiteSpace=wrap;html=1;shadow=0;fontFamily=Helvetica;fontSize=20;fontColor=#FFFFFF;align=center;strokeWidth=3;fillColor=#736ca8;strokeColor=none;" parent="1" vertex="1">
          <mxGeometry x="-2918.25" y="461.15999999999997" width="120" height="120" as="geometry" />
        </mxCell>
        <mxCell id="1355" value="Fungi" style="ellipse;whiteSpace=wrap;html=1;shadow=0;fontFamily=Helvetica;fontSize=20;fontColor=#FFFFFF;align=center;strokeWidth=3;fillColor=#F08705;strokeColor=none;" parent="1" vertex="1">
          <mxGeometry x="-3327.5" y="301.15999999999997" width="120" height="120" as="geometry" />
        </mxCell>
        <mxCell id="1356" value="Flower" style="ellipse;whiteSpace=wrap;html=1;shadow=0;fontFamily=Helvetica;fontSize=20;fontColor=#FFFFFF;align=center;strokeWidth=3;fillColor=#E85642;strokeColor=none;" parent="1" vertex="1">
          <mxGeometry x="-3143" y="412.15999999999997" width="120" height="120" as="geometry" />
        </mxCell>
        <mxCell id="xDNytKt1A_5V0aNAH69Z-1548" style="edgeStyle=none;rounded=0;orthogonalLoop=1;jettySize=auto;html=1;entryX=0;entryY=1;entryDx=0;entryDy=0;fontSize=12;exitX=1;exitY=0.5;exitDx=0;exitDy=0;strokeWidth=2;strokeColor=#A9C4EB;fillColor=#dae8fc;fontColor=#000000;" parent="1" source="1358" target="xDNytKt1A_5V0aNAH69Z-1542" edge="1">
          <mxGeometry relative="1" as="geometry" />
        </mxCell>
        <mxCell id="1358" value="&lt;font style=&quot;font-size: 18px;&quot;&gt;5. Keg. Pengawasan lain&lt;/font&gt;" style="rounded=1;fillColor=#64BBE2;strokeColor=none;strokeWidth=3;shadow=0;html=1;fontColor=#000000;whiteSpace=wrap;" parent="1" vertex="1">
          <mxGeometry x="-788.5" y="-210" width="158.5" height="70" as="geometry" />
        </mxCell>
        <mxCell id="1359" style="endArrow=none;strokeWidth=6;strokeColor=#1699D3;html=1;fontColor=#000000;" parent="1" source="1515" target="1350" edge="1">
          <mxGeometry relative="1" as="geometry" />
        </mxCell>
        <mxCell id="1360" style="endArrow=none;strokeWidth=6;strokeColor=#f08705;html=1;fontColor=#000000;" parent="1" source="1515" target="1351" edge="1">
          <mxGeometry relative="1" as="geometry" />
        </mxCell>
        <mxCell id="1361" style="endArrow=none;strokeWidth=6;strokeColor=#E85642;html=1;" parent="1" source="1515" target="1352" edge="1">
          <mxGeometry relative="1" as="geometry">
            <mxPoint x="-2928.4212752391213" y="200.00190891830258" as="sourcePoint" />
          </mxGeometry>
        </mxCell>
        <mxCell id="1362" style="endArrow=none;strokeWidth=6;strokeColor=#1699D3;html=1;" parent="1" target="1353" edge="1">
          <mxGeometry relative="1" as="geometry">
            <mxPoint x="-2948.1324685183126" y="220.20267046981476" as="sourcePoint" />
          </mxGeometry>
        </mxCell>
        <mxCell id="1363" style="endArrow=none;strokeWidth=6;strokeColor=#736CA8;html=1;" parent="1" target="1516" edge="1">
          <mxGeometry relative="1" as="geometry">
            <mxPoint x="-3147.215602291868" y="261.3764596881193" as="sourcePoint" />
          </mxGeometry>
        </mxCell>
        <mxCell id="1364" style="endArrow=none;strokeWidth=6;strokeColor=#736ca8;html=1;startArrow=none;" parent="1" target="1354" edge="1">
          <mxGeometry relative="1" as="geometry">
            <mxPoint x="-2991.6933850256846" y="250.00003055982611" as="sourcePoint" />
          </mxGeometry>
        </mxCell>
        <mxCell id="1365" value="" style="edgeStyle=none;endArrow=none;strokeWidth=6;strokeColor=#F08705;html=1;" parent="1" target="1355" edge="1">
          <mxGeometry x="-1986.5" y="28.659999999999997" width="100" height="100" as="geometry">
            <mxPoint x="-3192.546395765129" y="239.51079320191653" as="sourcePoint" />
            <mxPoint x="-1886.5" y="28.659999999999997" as="targetPoint" />
          </mxGeometry>
        </mxCell>
        <mxCell id="1366" value="" style="edgeStyle=none;endArrow=none;strokeWidth=6;strokeColor=#E85642;html=1;" parent="1" target="1356" edge="1">
          <mxGeometry x="-1986.5" y="28.659999999999997" width="100" height="100" as="geometry">
            <mxPoint x="-3083" y="271.90999999999997" as="sourcePoint" />
            <mxPoint x="-1886.5" y="28.659999999999997" as="targetPoint" />
          </mxGeometry>
        </mxCell>
        <mxCell id="xDNytKt1A_5V0aNAH69Z-1553" style="edgeStyle=none;rounded=0;orthogonalLoop=1;jettySize=auto;html=1;fontSize=12;strokeColor=#A9C4EB;strokeWidth=2;entryX=0;entryY=0.75;entryDx=0;entryDy=0;fillColor=#dae8fc;fontColor=#000000;" parent="1" source="1368" target="xDNytKt1A_5V0aNAH69Z-1542" edge="1">
          <mxGeometry relative="1" as="geometry" />
        </mxCell>
        <mxCell id="1368" value="&lt;font style=&quot;font-size: 18px;&quot;&gt;4. Pemantauan&lt;/font&gt;:&lt;br&gt;&lt;div&gt;proses penilaian kemajuan suatu program/kegiatan dalam mencapai tujuan yang telah ditetapkan secara berkesinambungan&lt;/div&gt;" style="rounded=1;fillColor=#64BBE2;strokeColor=none;strokeWidth=3;shadow=0;html=1;fontColor=#000000;whiteSpace=wrap;" parent="1" vertex="1">
          <mxGeometry x="-790" y="-340" width="160" height="120" as="geometry" />
        </mxCell>
        <mxCell id="xDNytKt1A_5V0aNAH69Z-1552" style="edgeStyle=none;rounded=0;orthogonalLoop=1;jettySize=auto;html=1;entryX=0;entryY=0.5;entryDx=0;entryDy=0;fontSize=12;strokeColor=#A9C4EB;strokeWidth=2;startArrow=none;fillColor=#dae8fc;fontColor=#000000;" parent="1" source="xDNytKt1A_5V0aNAH69Z-1550" target="xDNytKt1A_5V0aNAH69Z-1542" edge="1">
          <mxGeometry relative="1" as="geometry" />
        </mxCell>
        <mxCell id="1369" value="&lt;font style=&quot;font-size: 18px;&quot;&gt;3. Evaluasi&lt;/font&gt;:&amp;nbsp;&lt;br&gt;membandingkan hasil/prestasi suatu kegiatan dengan standar, rencana, atau norma&amp;nbsp;&lt;br&gt;&lt;br&gt;dan menentukan faktor yang mempengaruhi keberhasilan atau kegagalan" style="rounded=1;fillColor=#64BBE2;strokeColor=none;strokeWidth=3;shadow=0;html=1;fontColor=#000000;whiteSpace=wrap;" parent="1" vertex="1">
          <mxGeometry x="-789.25" y="-498.5" width="158.5" height="148.5" as="geometry" />
        </mxCell>
        <mxCell id="xDNytKt1A_5V0aNAH69Z-1545" style="edgeStyle=none;rounded=0;orthogonalLoop=1;jettySize=auto;html=1;entryX=0;entryY=0.25;entryDx=0;entryDy=0;fontSize=12;exitX=1;exitY=0.5;exitDx=0;exitDy=0;strokeWidth=2;strokeColor=#A9C4EB;fillColor=#dae8fc;fontColor=#000000;" parent="1" source="1370" target="xDNytKt1A_5V0aNAH69Z-1542" edge="1">
          <mxGeometry relative="1" as="geometry" />
        </mxCell>
        <mxCell id="1370" value="&lt;font style=&quot;font-size: 18px;&quot;&gt;2. Reviu&lt;/font&gt;:&amp;nbsp;&lt;br&gt;penelaahan ulang bukti bukti suatu kegiatan untuk memastikan bahwa kegiatan telah dilaksanakan sesuai ketentuan&amp;nbsp;" style="rounded=1;fillColor=#64BBE2;strokeColor=none;strokeWidth=3;shadow=0;html=1;fontColor=#000000;whiteSpace=wrap;" parent="1" vertex="1">
          <mxGeometry x="-790" y="-610" width="160" height="100" as="geometry" />
        </mxCell>
        <mxCell id="xDNytKt1A_5V0aNAH69Z-1544" style="rounded=0;orthogonalLoop=1;jettySize=auto;html=1;fontSize=12;exitX=1;exitY=0.5;exitDx=0;exitDy=0;entryX=0;entryY=0;entryDx=0;entryDy=0;strokeWidth=2;strokeColor=#A9C4EB;fillColor=#dae8fc;fontColor=#000000;" parent="1" source="1371" target="xDNytKt1A_5V0aNAH69Z-1542" edge="1">
          <mxGeometry relative="1" as="geometry" />
        </mxCell>
        <mxCell id="1371" value="&lt;font style=&quot;font-size: 18px;&quot;&gt;1. Audit&lt;/font&gt;:&lt;br&gt;proses identifikasi dan analisis masalah, pengujian, dan evaluasi bukti" style="rounded=1;fillColor=#64BBE2;strokeColor=none;strokeWidth=3;shadow=0;html=1;fontColor=#000000;whiteSpace=wrap;" parent="1" vertex="1">
          <mxGeometry x="-788.5" y="-710" width="160" height="90" as="geometry" />
        </mxCell>
        <mxCell id="1379" value="" style="edgeStyle=none;endArrow=none;strokeWidth=3;strokeColor=#64BBE2;html=1;entryX=0;entryY=0.5;entryDx=0;entryDy=0;fontColor=#000000;" parent="1" source="1350" target="1358" edge="1">
          <mxGeometry x="-541.5" y="-436" width="100" height="100" as="geometry">
            <mxPoint x="-541.5" y="-336" as="sourcePoint" />
            <mxPoint x="-441.5" y="-436" as="targetPoint" />
          </mxGeometry>
        </mxCell>
        <mxCell id="1380" value="" style="edgeStyle=none;endArrow=none;strokeWidth=3;strokeColor=#64BBE2;html=1;entryX=0;entryY=0.5;entryDx=0;entryDy=0;fontColor=#000000;" parent="1" source="1350" target="1368" edge="1">
          <mxGeometry x="-541.5" y="-436" width="100" height="100" as="geometry">
            <mxPoint x="-541.5" y="-336" as="sourcePoint" />
            <mxPoint x="-441.5" y="-436" as="targetPoint" />
          </mxGeometry>
        </mxCell>
        <mxCell id="1381" value="" style="edgeStyle=none;endArrow=none;strokeWidth=3;strokeColor=#64BBE2;html=1;entryX=0;entryY=0.5;entryDx=0;entryDy=0;fontColor=#000000;" parent="1" source="1350" target="1369" edge="1">
          <mxGeometry x="-541.5" y="-436" width="100" height="100" as="geometry">
            <mxPoint x="-541.5" y="-336" as="sourcePoint" />
            <mxPoint x="-780" y="-388.5" as="targetPoint" />
          </mxGeometry>
        </mxCell>
        <mxCell id="1382" value="" style="edgeStyle=none;endArrow=none;strokeWidth=3;strokeColor=#64BBE2;html=1;entryX=0;entryY=0.5;entryDx=0;entryDy=0;fontColor=#000000;" parent="1" source="1350" target="1370" edge="1">
          <mxGeometry x="-541.5" y="-436" width="100" height="100" as="geometry">
            <mxPoint x="-541.5" y="-336" as="sourcePoint" />
            <mxPoint x="-441.5" y="-436" as="targetPoint" />
          </mxGeometry>
        </mxCell>
        <mxCell id="1383" value="" style="edgeStyle=none;endArrow=none;strokeWidth=3;strokeColor=#64BBE2;html=1;entryX=0;entryY=0.5;entryDx=0;entryDy=0;fontColor=#000000;" parent="1" source="1350" target="1371" edge="1">
          <mxGeometry x="-541.5" y="-436" width="100" height="100" as="geometry">
            <mxPoint x="-541.5" y="-336" as="sourcePoint" />
            <mxPoint x="-441.5" y="-436" as="targetPoint" />
          </mxGeometry>
        </mxCell>
        <mxCell id="xDNytKt1A_5V0aNAH69Z-1603" style="edgeStyle=orthogonalEdgeStyle;rounded=0;orthogonalLoop=1;jettySize=auto;html=1;entryX=0.329;entryY=0.001;entryDx=0;entryDy=0;entryPerimeter=0;fontSize=10;strokeColor=#F5BD84;strokeWidth=2;exitX=1;exitY=0.5;exitDx=0;exitDy=0;fontColor=#000000;" parent="1" source="1390" target="xDNytKt1A_5V0aNAH69Z-1596" edge="1">
          <mxGeometry relative="1" as="geometry" />
        </mxCell>
        <mxCell id="1390" value="PJ Wilayah" style="rounded=1;fillColor=#f5af58;strokeColor=none;strokeWidth=3;shadow=0;html=1;fontColor=#000000;whiteSpace=wrap;fontSize=18;" parent="1" vertex="1">
          <mxGeometry x="-479.38" y="922.0000000000001" width="120" height="40" as="geometry" />
        </mxCell>
        <mxCell id="xDNytKt1A_5V0aNAH69Z-1572" style="edgeStyle=orthogonalEdgeStyle;rounded=0;orthogonalLoop=1;jettySize=auto;html=1;entryX=0.5;entryY=0;entryDx=0;entryDy=0;fontSize=18;strokeColor=#F5BD84;strokeWidth=2;exitX=1;exitY=0.5;exitDx=0;exitDy=0;fontColor=#000000;" parent="1" source="1392" target="xDNytKt1A_5V0aNAH69Z-1585" edge="1">
          <mxGeometry relative="1" as="geometry" />
        </mxCell>
        <mxCell id="1392" value="1. PJ Bid. Audit" style="rounded=1;fillColor=#f5af58;strokeColor=none;strokeWidth=3;shadow=0;html=1;fontColor=#000000;whiteSpace=wrap;fontSize=18;" parent="1" vertex="1">
          <mxGeometry x="-479.38" y="-300" width="139.38" height="40" as="geometry" />
        </mxCell>
        <mxCell id="ofFDjcfbIGw3xVgY4F3X-1572" style="edgeStyle=orthogonalEdgeStyle;rounded=0;orthogonalLoop=1;jettySize=auto;html=1;strokeColor=#F5BD84;strokeWidth=3;exitX=1;exitY=0.5;exitDx=0;exitDy=0;fontColor=#000000;" parent="1" source="1393" target="xDNytKt1A_5V0aNAH69Z-1605" edge="1">
          <mxGeometry relative="1" as="geometry" />
        </mxCell>
        <mxCell id="1393" value="2. PJ Bid. Reviu, Monitoring, Evaluasi, dan Urusan LHKPN" style="rounded=1;fillColor=#f5af58;strokeColor=none;strokeWidth=3;shadow=0;html=1;fontColor=#000000;whiteSpace=wrap;fontSize=18;" parent="1" vertex="1">
          <mxGeometry x="-479.38" y="70" width="245" height="60" as="geometry" />
        </mxCell>
        <mxCell id="1402" value="" style="edgeStyle=orthogonalEdgeStyle;endArrow=none;strokeWidth=3;strokeColor=#F5AF58;html=1;" parent="1" source="1351" target="1390" edge="1">
          <mxGeometry x="3.5" y="21.5" width="100" height="100" as="geometry">
            <mxPoint x="3.5" y="121.5" as="sourcePoint" />
            <mxPoint x="103.5" y="21.5" as="targetPoint" />
            <Array as="points">
              <mxPoint x="-640" y="942" />
            </Array>
          </mxGeometry>
        </mxCell>
        <mxCell id="1403" value="" style="edgeStyle=orthogonalEdgeStyle;endArrow=none;strokeWidth=3;strokeColor=#F5AF58;html=1;" parent="1" source="1351" target="1391" edge="1">
          <mxGeometry x="3.5" y="21.5" width="100" height="100" as="geometry">
            <mxPoint x="3.5" y="121.5" as="sourcePoint" />
            <mxPoint x="103.5" y="21.5" as="targetPoint" />
            <Array as="points">
              <mxPoint x="-610" y="508" />
            </Array>
          </mxGeometry>
        </mxCell>
        <mxCell id="1404" value="" style="edgeStyle=orthogonalEdgeStyle;endArrow=none;strokeWidth=3;strokeColor=#F5AF58;html=1;entryX=0;entryY=0.5;entryDx=0;entryDy=0;fontColor=#000000;" parent="1" source="1351" target="1392" edge="1">
          <mxGeometry x="3.5" y="21.5" width="100" height="100" as="geometry">
            <mxPoint x="3.5" y="121.5" as="sourcePoint" />
            <mxPoint x="103.5" y="21.5" as="targetPoint" />
          </mxGeometry>
        </mxCell>
        <mxCell id="1405" value="" style="edgeStyle=orthogonalEdgeStyle;endArrow=none;strokeWidth=3;strokeColor=#F5AF58;html=1;fontColor=#000000;" parent="1" source="1351" target="1393" edge="1">
          <mxGeometry x="3.5" y="21.5" width="100" height="100" as="geometry">
            <mxPoint x="3.5" y="121.5" as="sourcePoint" />
            <mxPoint x="103.5" y="21.5" as="targetPoint" />
            <Array as="points">
              <mxPoint x="-580" y="100" />
            </Array>
          </mxGeometry>
        </mxCell>
        <mxCell id="ofFDjcfbIGw3xVgY4F3X-1601" style="edgeStyle=orthogonalEdgeStyle;rounded=0;orthogonalLoop=1;jettySize=auto;html=1;fontColor=#F5AF58;strokeColor=#F08E81;strokeWidth=3;entryX=0.585;entryY=0.005;entryDx=0;entryDy=0;entryPerimeter=0;exitX=0;exitY=0.5;exitDx=0;exitDy=0;" parent="1" source="1417" target="ofFDjcfbIGw3xVgY4F3X-1587" edge="1">
          <mxGeometry relative="1" as="geometry">
            <mxPoint x="-1129" y="610" as="targetPoint" />
          </mxGeometry>
        </mxCell>
        <mxCell id="1417" value="Penggunaan TIK dalam Sistem Pengawasan" style="rounded=1;fillColor=#F08E81;strokeColor=none;strokeWidth=3;shadow=0;html=1;fontColor=#000000;whiteSpace=wrap;" parent="1" vertex="1">
          <mxGeometry x="-979" y="547.16" width="120" height="60" as="geometry" />
        </mxCell>
        <mxCell id="1428" value="" style="edgeStyle=none;endArrow=none;strokeWidth=3;strokeColor=#F08E81;html=1;fontColor=#000000;" parent="1" source="1352" target="1417" edge="1">
          <mxGeometry x="-272.5" y="957.66" width="100" height="100" as="geometry">
            <mxPoint x="-272.5" y="1057.6599999999999" as="sourcePoint" />
            <mxPoint x="-172.5" y="957.66" as="targetPoint" />
          </mxGeometry>
        </mxCell>
        <mxCell id="1435" value="Perch" style="rounded=1;fillColor=#64BBE2;strokeColor=none;strokeWidth=3;shadow=0;html=1;fontColor=#FFFFFF;" parent="1" vertex="1">
          <mxGeometry x="-2668.5" y="413.65999999999997" width="120" height="40" as="geometry" />
        </mxCell>
        <mxCell id="1436" value="Mackerel" style="rounded=1;fillColor=#64BBE2;strokeColor=none;strokeWidth=3;shadow=0;html=1;fontColor=#FFFFFF;" parent="1" vertex="1">
          <mxGeometry x="-2638.5" y="343.65999999999997" width="120" height="40" as="geometry" />
        </mxCell>
        <mxCell id="1437" value="Tuna" style="rounded=1;fillColor=#64BBE2;strokeColor=none;strokeWidth=3;shadow=0;html=1;fontColor=#FFFFFF;" parent="1" vertex="1">
          <mxGeometry x="-2513.5" y="313.65999999999997" width="120" height="40" as="geometry" />
        </mxCell>
        <mxCell id="1438" value="Shark" style="rounded=1;fillColor=#64BBE2;strokeColor=none;strokeWidth=3;shadow=0;html=1;fontColor=#FFFFFF;" parent="1" vertex="1">
          <mxGeometry x="-2393.5" y="263.65999999999997" width="120" height="40" as="geometry" />
        </mxCell>
        <mxCell id="1439" value="Whale" style="rounded=1;fillColor=#64BBE2;strokeColor=none;strokeWidth=3;shadow=0;html=1;fontColor=#FFFFFF;" parent="1" vertex="1">
          <mxGeometry x="-2348.5" y="353.65999999999997" width="120" height="40" as="geometry" />
        </mxCell>
        <mxCell id="1440" value="Bass" style="rounded=1;fillColor=#64BBE2;strokeColor=none;strokeWidth=3;shadow=0;html=1;fontColor=#FFFFFF;" parent="1" vertex="1">
          <mxGeometry x="-2278.5" y="433.65999999999997" width="120" height="40" as="geometry" />
        </mxCell>
        <mxCell id="1441" value="Eel" style="rounded=1;fillColor=#64BBE2;strokeColor=none;strokeWidth=3;shadow=0;html=1;fontColor=#FFFFFF;" parent="1" vertex="1">
          <mxGeometry x="-2530" y="508.65999999999997" width="120" height="40" as="geometry" />
        </mxCell>
        <mxCell id="1442" value="Oyster" style="rounded=1;fillColor=#64BBE2;strokeColor=none;strokeWidth=3;shadow=0;html=1;fontColor=#FFFFFF;" parent="1" vertex="1">
          <mxGeometry x="-2470" y="413.65999999999997" width="120" height="40" as="geometry" />
        </mxCell>
        <mxCell id="1443" value="Ray" style="rounded=1;fillColor=#64BBE2;strokeColor=none;strokeWidth=3;shadow=0;html=1;fontColor=#FFFFFF;" parent="1" vertex="1">
          <mxGeometry x="-2688.5" y="497.65999999999997" width="120" height="40" as="geometry" />
        </mxCell>
        <mxCell id="1444" value="Trout" style="rounded=1;fillColor=#64BBE2;strokeColor=none;strokeWidth=3;shadow=0;html=1;fontColor=#FFFFFF;" parent="1" vertex="1">
          <mxGeometry x="-2268.5" y="562.66" width="120" height="40" as="geometry" />
        </mxCell>
        <mxCell id="1445" value="Catfish" style="rounded=1;fillColor=#64BBE2;strokeColor=none;strokeWidth=3;shadow=0;html=1;fontColor=#FFFFFF;" parent="1" vertex="1">
          <mxGeometry x="-2368.5" y="497.65999999999997" width="120" height="40" as="geometry" />
        </mxCell>
        <mxCell id="1446" value="" style="edgeStyle=none;endArrow=none;strokeWidth=3;strokeColor=#64BBE2;html=1;" parent="1" source="1353" target="1435" edge="1">
          <mxGeometry x="-2242.5" y="80.16" width="100" height="100" as="geometry">
            <mxPoint x="-2242.5" y="180.16" as="sourcePoint" />
            <mxPoint x="-2142.5" y="80.16" as="targetPoint" />
          </mxGeometry>
        </mxCell>
        <mxCell id="1447" value="" style="edgeStyle=none;endArrow=none;strokeWidth=3;strokeColor=#64BBE2;html=1;" parent="1" source="1353" target="1436" edge="1">
          <mxGeometry x="-2242.5" y="80.16" width="100" height="100" as="geometry">
            <mxPoint x="-2242.5" y="180.16" as="sourcePoint" />
            <mxPoint x="-2142.5" y="80.16" as="targetPoint" />
          </mxGeometry>
        </mxCell>
        <mxCell id="1448" value="" style="edgeStyle=none;endArrow=none;strokeWidth=3;strokeColor=#64BBE2;html=1;" parent="1" source="1353" target="1437" edge="1">
          <mxGeometry x="-2242.5" y="80.16" width="100" height="100" as="geometry">
            <mxPoint x="-2242.5" y="180.16" as="sourcePoint" />
            <mxPoint x="-2142.5" y="80.16" as="targetPoint" />
          </mxGeometry>
        </mxCell>
        <mxCell id="1449" value="" style="edgeStyle=none;endArrow=none;strokeWidth=3;strokeColor=#64BBE2;html=1;" parent="1" source="1353" target="1438" edge="1">
          <mxGeometry x="-2242.5" y="80.16" width="100" height="100" as="geometry">
            <mxPoint x="-2242.5" y="180.16" as="sourcePoint" />
            <mxPoint x="-2142.5" y="80.16" as="targetPoint" />
          </mxGeometry>
        </mxCell>
        <mxCell id="1450" value="" style="edgeStyle=none;endArrow=none;strokeWidth=3;strokeColor=#64BBE2;html=1;" parent="1" source="1353" target="1439" edge="1">
          <mxGeometry x="-2242.5" y="80.16" width="100" height="100" as="geometry">
            <mxPoint x="-2242.5" y="180.16" as="sourcePoint" />
            <mxPoint x="-2142.5" y="80.16" as="targetPoint" />
          </mxGeometry>
        </mxCell>
        <mxCell id="1451" value="" style="edgeStyle=none;endArrow=none;strokeWidth=3;strokeColor=#64BBE2;html=1;" parent="1" source="1353" target="1440" edge="1">
          <mxGeometry x="-2242.5" y="80.16" width="100" height="100" as="geometry">
            <mxPoint x="-2242.5" y="180.16" as="sourcePoint" />
            <mxPoint x="-2142.5" y="80.16" as="targetPoint" />
          </mxGeometry>
        </mxCell>
        <mxCell id="1452" value="" style="edgeStyle=none;endArrow=none;strokeWidth=3;strokeColor=#64BBE2;html=1;" parent="1" source="1353" target="1442" edge="1">
          <mxGeometry x="-2242.5" y="80.16" width="100" height="100" as="geometry">
            <mxPoint x="-2242.5" y="180.16" as="sourcePoint" />
            <mxPoint x="-2142.5" y="80.16" as="targetPoint" />
          </mxGeometry>
        </mxCell>
        <mxCell id="1453" value="" style="edgeStyle=none;endArrow=none;strokeWidth=3;strokeColor=#64BBE2;html=1;" parent="1" source="1353" target="1441" edge="1">
          <mxGeometry x="-2242.5" y="80.16" width="100" height="100" as="geometry">
            <mxPoint x="-2242.5" y="180.16" as="sourcePoint" />
            <mxPoint x="-2142.5" y="80.16" as="targetPoint" />
          </mxGeometry>
        </mxCell>
        <mxCell id="1454" value="" style="edgeStyle=none;endArrow=none;strokeWidth=3;strokeColor=#64BBE2;html=1;" parent="1" source="1353" target="1443" edge="1">
          <mxGeometry x="-2242.5" y="80.16" width="100" height="100" as="geometry">
            <mxPoint x="-2242.5" y="180.16" as="sourcePoint" />
            <mxPoint x="-2142.5" y="80.16" as="targetPoint" />
          </mxGeometry>
        </mxCell>
        <mxCell id="1455" value="" style="edgeStyle=none;endArrow=none;strokeWidth=3;strokeColor=#64BBE2;html=1;" parent="1" source="1353" target="1444" edge="1">
          <mxGeometry x="-2242.5" y="80.16" width="100" height="100" as="geometry">
            <mxPoint x="-2242.5" y="180.16" as="sourcePoint" />
            <mxPoint x="-2142.5" y="80.16" as="targetPoint" />
          </mxGeometry>
        </mxCell>
        <mxCell id="1456" value="" style="edgeStyle=none;endArrow=none;strokeWidth=3;strokeColor=#64BBE2;html=1;" parent="1" source="1353" target="1445" edge="1">
          <mxGeometry x="-2242.5" y="80.16" width="100" height="100" as="geometry">
            <mxPoint x="-2242.5" y="180.16" as="sourcePoint" />
            <mxPoint x="-2142.5" y="80.16" as="targetPoint" />
          </mxGeometry>
        </mxCell>
        <mxCell id="1457" value="Streptococcus" style="rounded=1;fillColor=#a29dc5;strokeColor=none;strokeWidth=3;shadow=0;html=1;fontColor=#FFFFFF;" parent="1" vertex="1">
          <mxGeometry x="-2732.5" y="589.16" width="120" height="40" as="geometry" />
        </mxCell>
        <mxCell id="1458" value="Echericia Colli" style="rounded=1;fillColor=#a29dc5;strokeColor=none;strokeWidth=3;shadow=0;html=1;fontColor=#FFFFFF;" parent="1" vertex="1">
          <mxGeometry x="-2737.5" y="658.66" width="120" height="40" as="geometry" />
        </mxCell>
        <mxCell id="1459" value="Lactobacyllus" style="rounded=1;fillColor=#a29dc5;strokeColor=none;strokeWidth=3;shadow=0;html=1;fontColor=#FFFFFF;" parent="1" vertex="1">
          <mxGeometry x="-2577.5" y="616.16" width="120" height="40" as="geometry" />
        </mxCell>
        <mxCell id="1460" value="Helicobacter" style="rounded=1;fillColor=#a29dc5;strokeColor=none;strokeWidth=3;shadow=0;html=1;fontColor=#FFFFFF;" parent="1" vertex="1">
          <mxGeometry x="-2627.5" y="715.66" width="120" height="40" as="geometry" />
        </mxCell>
        <mxCell id="1461" value="Bifidobacterium" style="rounded=1;fillColor=#a29dc5;strokeColor=none;strokeWidth=3;shadow=0;html=1;fontColor=#FFFFFF;" parent="1" vertex="1">
          <mxGeometry x="-2727.5" y="773.66" width="120" height="40" as="geometry" />
        </mxCell>
        <mxCell id="1462" value="Staphyllococcus" style="rounded=1;fillColor=#a29dc5;strokeColor=none;strokeWidth=3;shadow=0;html=1;fontColor=#FFFFFF;" parent="1" vertex="1">
          <mxGeometry x="-2827.5" y="713.66" width="120" height="40" as="geometry" />
        </mxCell>
        <mxCell id="1463" value="" style="edgeStyle=none;endArrow=none;strokeWidth=3;strokeColor=#A29DC5;html=1;" parent="1" source="1354" target="1460" edge="1">
          <mxGeometry x="-1916.5" y="-301.34000000000003" width="100" height="100" as="geometry">
            <mxPoint x="-1916.5" y="-201.34" as="sourcePoint" />
            <mxPoint x="-1816.5" y="-301.34000000000003" as="targetPoint" />
          </mxGeometry>
        </mxCell>
        <mxCell id="1464" value="" style="edgeStyle=none;endArrow=none;strokeWidth=3;strokeColor=#A29DC5;html=1;" parent="1" source="1354" target="1461" edge="1">
          <mxGeometry x="-1916.5" y="-301.34000000000003" width="100" height="100" as="geometry">
            <mxPoint x="-1916.5" y="-201.34" as="sourcePoint" />
            <mxPoint x="-1816.5" y="-301.34000000000003" as="targetPoint" />
          </mxGeometry>
        </mxCell>
        <mxCell id="1465" value="" style="edgeStyle=none;endArrow=none;strokeWidth=3;strokeColor=#A29DC5;html=1;" parent="1" source="1354" target="1458" edge="1">
          <mxGeometry x="-1916.5" y="-301.34000000000003" width="100" height="100" as="geometry">
            <mxPoint x="-1916.5" y="-201.34" as="sourcePoint" />
            <mxPoint x="-1816.5" y="-301.34000000000003" as="targetPoint" />
          </mxGeometry>
        </mxCell>
        <mxCell id="1466" value="" style="edgeStyle=none;endArrow=none;strokeWidth=3;strokeColor=#A29DC5;html=1;" parent="1" source="1354" target="1462" edge="1">
          <mxGeometry x="-1916.5" y="-301.34000000000003" width="100" height="100" as="geometry">
            <mxPoint x="-1916.5" y="-201.34" as="sourcePoint" />
            <mxPoint x="-1816.5" y="-301.34000000000003" as="targetPoint" />
          </mxGeometry>
        </mxCell>
        <mxCell id="1467" value="" style="edgeStyle=none;endArrow=none;strokeWidth=3;strokeColor=#A29DC5;html=1;" parent="1" source="1354" target="1457" edge="1">
          <mxGeometry x="-1916.5" y="-301.34000000000003" width="100" height="100" as="geometry">
            <mxPoint x="-1916.5" y="-201.34" as="sourcePoint" />
            <mxPoint x="-1816.5" y="-301.34000000000003" as="targetPoint" />
          </mxGeometry>
        </mxCell>
        <mxCell id="1468" value="Zygomycota" style="rounded=1;fillColor=#f5af58;strokeColor=none;strokeWidth=3;shadow=0;html=1;fontColor=#FFFFFF;" parent="1" vertex="1">
          <mxGeometry x="-3687.5" y="368.65999999999997" width="120" height="40" as="geometry" />
        </mxCell>
        <mxCell id="1469" value="Script Writing" style="rounded=1;fillColor=#f5af58;strokeColor=none;strokeWidth=3;shadow=0;html=1;fontColor=#FFFFFF;" parent="1" vertex="1">
          <mxGeometry x="-3672.5" y="441.15999999999997" width="120" height="40" as="geometry" />
        </mxCell>
        <mxCell id="1470" value="Ascomycota" style="rounded=1;fillColor=#f5af58;strokeColor=none;strokeWidth=3;shadow=0;html=1;fontColor=#FFFFFF;" parent="1" vertex="1">
          <mxGeometry x="-3697.5" y="506.15999999999997" width="120" height="40" as="geometry" />
        </mxCell>
        <mxCell id="1471" value="Basidiomycota" style="rounded=1;fillColor=#f5af58;strokeColor=none;strokeWidth=3;shadow=0;html=1;fontColor=#FFFFFF;" parent="1" vertex="1">
          <mxGeometry x="-3671" y="581.16" width="120" height="40" as="geometry" />
        </mxCell>
        <mxCell id="1472" value="Mushroom" style="rounded=1;fillColor=#f5af58;strokeColor=none;strokeWidth=3;shadow=0;html=1;fontColor=#FFFFFF;" parent="1" vertex="1">
          <mxGeometry x="-3717.5" y="638.66" width="120" height="40" as="geometry" />
        </mxCell>
        <mxCell id="1473" value="Lichen" style="rounded=1;fillColor=#f5af58;strokeColor=none;strokeWidth=3;shadow=0;html=1;fontColor=#FFFFFF;" parent="1" vertex="1">
          <mxGeometry x="-3817.5" y="581.16" width="120" height="40" as="geometry" />
        </mxCell>
        <mxCell id="1474" value="Bread Mold" style="rounded=1;fillColor=#f5af58;strokeColor=none;strokeWidth=3;shadow=0;html=1;fontColor=#FFFFFF;" parent="1" vertex="1">
          <mxGeometry x="-3897.5" y="521.16" width="120" height="40" as="geometry" />
        </mxCell>
        <mxCell id="1475" value="Yeast" style="rounded=1;fillColor=#f5af58;strokeColor=none;strokeWidth=3;shadow=0;html=1;fontColor=#FFFFFF;" parent="1" vertex="1">
          <mxGeometry x="-3937.5" y="448.65999999999997" width="120" height="40" as="geometry" />
        </mxCell>
        <mxCell id="1476" value="Zygospore" style="rounded=1;fillColor=#f5af58;strokeColor=none;strokeWidth=3;shadow=0;html=1;fontColor=#FFFFFF;" parent="1" vertex="1">
          <mxGeometry x="-3932.5" y="383.65999999999997" width="120" height="40" as="geometry" />
        </mxCell>
        <mxCell id="1477" value="Truffle" style="rounded=1;fillColor=#f5af58;strokeColor=none;strokeWidth=3;shadow=0;html=1;fontColor=#FFFFFF;" parent="1" vertex="1">
          <mxGeometry x="-3872.5" y="318.65999999999997" width="120" height="40" as="geometry" />
        </mxCell>
        <mxCell id="1478" value="Chytrid" style="rounded=1;fillColor=#f5af58;strokeColor=none;strokeWidth=3;shadow=0;html=1;fontColor=#FFFFFF;" parent="1" vertex="1">
          <mxGeometry x="-3656" y="303.65999999999997" width="120" height="40" as="geometry" />
        </mxCell>
        <mxCell id="1479" value="" style="edgeStyle=none;endArrow=none;strokeWidth=3;strokeColor=#F5AF58;html=1;" parent="1" source="1355" target="1478" edge="1">
          <mxGeometry x="-1924" y="-158.84" width="100" height="100" as="geometry">
            <mxPoint x="-1924" y="-58.84" as="sourcePoint" />
            <mxPoint x="-1824" y="-158.84" as="targetPoint" />
          </mxGeometry>
        </mxCell>
        <mxCell id="1480" value="" style="edgeStyle=none;endArrow=none;strokeWidth=3;strokeColor=#F5AF58;html=1;" parent="1" source="1355" target="1468" edge="1">
          <mxGeometry x="-1924" y="-158.84" width="100" height="100" as="geometry">
            <mxPoint x="-1924" y="-58.84" as="sourcePoint" />
            <mxPoint x="-1824" y="-158.84" as="targetPoint" />
          </mxGeometry>
        </mxCell>
        <mxCell id="1481" value="" style="edgeStyle=none;endArrow=none;strokeWidth=3;strokeColor=#F5AF58;html=1;" parent="1" source="1355" target="1469" edge="1">
          <mxGeometry x="-1924" y="-158.84" width="100" height="100" as="geometry">
            <mxPoint x="-1924" y="-58.84" as="sourcePoint" />
            <mxPoint x="-1824" y="-158.84" as="targetPoint" />
          </mxGeometry>
        </mxCell>
        <mxCell id="1482" value="" style="edgeStyle=none;endArrow=none;strokeWidth=3;strokeColor=#F5AF58;html=1;" parent="1" source="1355" target="1470" edge="1">
          <mxGeometry x="-1924" y="-158.84" width="100" height="100" as="geometry">
            <mxPoint x="-1924" y="-58.84" as="sourcePoint" />
            <mxPoint x="-1824" y="-158.84" as="targetPoint" />
          </mxGeometry>
        </mxCell>
        <mxCell id="1483" value="" style="edgeStyle=none;endArrow=none;strokeWidth=3;strokeColor=#F5AF58;html=1;" parent="1" source="1355" target="1471" edge="1">
          <mxGeometry x="-1924" y="-158.84" width="100" height="100" as="geometry">
            <mxPoint x="-1924" y="-58.84" as="sourcePoint" />
            <mxPoint x="-1824" y="-158.84" as="targetPoint" />
          </mxGeometry>
        </mxCell>
        <mxCell id="1484" value="" style="edgeStyle=none;endArrow=none;strokeWidth=3;strokeColor=#F5AF58;html=1;" parent="1" source="1355" target="1472" edge="1">
          <mxGeometry x="-1924" y="-158.84" width="100" height="100" as="geometry">
            <mxPoint x="-1924" y="-58.84" as="sourcePoint" />
            <mxPoint x="-1824" y="-158.84" as="targetPoint" />
          </mxGeometry>
        </mxCell>
        <mxCell id="1485" value="" style="edgeStyle=none;endArrow=none;strokeWidth=3;strokeColor=#F5AF58;html=1;" parent="1" source="1355" target="1473" edge="1">
          <mxGeometry x="-1924" y="-158.84" width="100" height="100" as="geometry">
            <mxPoint x="-1924" y="-58.84" as="sourcePoint" />
            <mxPoint x="-1824" y="-158.84" as="targetPoint" />
          </mxGeometry>
        </mxCell>
        <mxCell id="1486" value="" style="edgeStyle=none;endArrow=none;strokeWidth=3;strokeColor=#F5AF58;html=1;" parent="1" source="1355" target="1474" edge="1">
          <mxGeometry x="-1924" y="-158.84" width="100" height="100" as="geometry">
            <mxPoint x="-1924" y="-58.84" as="sourcePoint" />
            <mxPoint x="-1824" y="-158.84" as="targetPoint" />
          </mxGeometry>
        </mxCell>
        <mxCell id="1487" value="" style="edgeStyle=none;endArrow=none;strokeWidth=3;strokeColor=#F5AF58;html=1;" parent="1" source="1355" target="1475" edge="1">
          <mxGeometry x="-1924" y="-158.84" width="100" height="100" as="geometry">
            <mxPoint x="-1924" y="-58.84" as="sourcePoint" />
            <mxPoint x="-1824" y="-158.84" as="targetPoint" />
          </mxGeometry>
        </mxCell>
        <mxCell id="1488" value="" style="edgeStyle=none;endArrow=none;strokeWidth=3;strokeColor=#F5AF58;html=1;" parent="1" source="1355" target="1476" edge="1">
          <mxGeometry x="-1924" y="-158.84" width="100" height="100" as="geometry">
            <mxPoint x="-1924" y="-58.84" as="sourcePoint" />
            <mxPoint x="-1824" y="-158.84" as="targetPoint" />
          </mxGeometry>
        </mxCell>
        <mxCell id="1489" value="" style="edgeStyle=none;endArrow=none;strokeWidth=3;strokeColor=#F5AF58;html=1;" parent="1" source="1355" target="1477" edge="1">
          <mxGeometry x="-1924" y="-158.84" width="100" height="100" as="geometry">
            <mxPoint x="-1924" y="-58.84" as="sourcePoint" />
            <mxPoint x="-1824" y="-158.84" as="targetPoint" />
          </mxGeometry>
        </mxCell>
        <mxCell id="1490" value="Philadendron" style="rounded=1;fillColor=#f08e81;strokeColor=none;strokeWidth=3;shadow=0;html=1;fontColor=#FFFFFF;" parent="1" vertex="1">
          <mxGeometry x="-3002.5" y="678.66" width="120" height="40" as="geometry" />
        </mxCell>
        <mxCell id="1491" value="Dahlia" style="rounded=1;fillColor=#f08e81;strokeColor=none;strokeWidth=3;shadow=0;html=1;fontColor=#FFFFFF;" parent="1" vertex="1">
          <mxGeometry x="-3157.5" y="698.66" width="120" height="40" as="geometry" />
        </mxCell>
        <mxCell id="1492" value="Petunia" style="rounded=1;fillColor=#f08e81;strokeColor=none;strokeWidth=3;shadow=0;html=1;fontColor=#FFFFFF;" parent="1" vertex="1">
          <mxGeometry x="-3202.5" y="738.66" width="120" height="40" as="geometry" />
        </mxCell>
        <mxCell id="1493" value="Cactus" style="rounded=1;fillColor=#f08e81;strokeColor=none;strokeWidth=3;shadow=0;html=1;fontColor=#FFFFFF;" parent="1" vertex="1">
          <mxGeometry x="-3257.5" y="798.66" width="120" height="40" as="geometry" />
        </mxCell>
        <mxCell id="1494" value="Tulip" style="rounded=1;fillColor=#f08e81;strokeColor=none;strokeWidth=3;shadow=0;html=1;fontColor=#FFFFFF;" parent="1" vertex="1">
          <mxGeometry x="-3277.5" y="853.66" width="120" height="40" as="geometry" />
        </mxCell>
        <mxCell id="1495" value="Lilac" style="rounded=1;fillColor=#f08e81;strokeColor=none;strokeWidth=3;shadow=0;html=1;fontColor=#FFFFFF;" parent="1" vertex="1">
          <mxGeometry x="-3262.5" y="918.66" width="120" height="40" as="geometry" />
        </mxCell>
        <mxCell id="1496" value="Dandelion" style="rounded=1;fillColor=#f08e81;strokeColor=none;strokeWidth=3;shadow=0;html=1;fontColor=#FFFFFF;" parent="1" vertex="1">
          <mxGeometry x="-3227.5" y="981.16" width="120" height="40" as="geometry" />
        </mxCell>
        <mxCell id="1497" value="Poppy" style="rounded=1;fillColor=#f08e81;strokeColor=none;strokeWidth=3;shadow=0;html=1;fontColor=#FFFFFF;" parent="1" vertex="1">
          <mxGeometry x="-3157.5" y="1031.16" width="120" height="40" as="geometry" />
        </mxCell>
        <mxCell id="1498" value="Gerbera" style="rounded=1;fillColor=#f08e81;strokeColor=none;strokeWidth=3;shadow=0;html=1;fontColor=#FFFFFF;" parent="1" vertex="1">
          <mxGeometry x="-3024" y="988.66" width="120" height="40" as="geometry" />
        </mxCell>
        <mxCell id="1499" value="Orchid" style="rounded=1;fillColor=#f08e81;strokeColor=none;strokeWidth=3;shadow=0;html=1;fontColor=#FFFFFF;" parent="1" vertex="1">
          <mxGeometry x="-3057.5" y="918.66" width="120" height="40" as="geometry" />
        </mxCell>
        <mxCell id="1500" value="Gladiola" style="rounded=1;fillColor=#f08e81;strokeColor=none;strokeWidth=3;shadow=0;html=1;fontColor=#FFFFFF;" parent="1" vertex="1">
          <mxGeometry x="-2997.5" y="851.16" width="120" height="40" as="geometry" />
        </mxCell>
        <mxCell id="1501" value="Rose" style="rounded=1;fillColor=#f08e81;strokeColor=none;strokeWidth=3;shadow=0;html=1;fontColor=#FFFFFF;" parent="1" vertex="1">
          <mxGeometry x="-2977.5" y="755.66" width="120" height="40" as="geometry" />
        </mxCell>
        <mxCell id="1502" value="" style="edgeStyle=none;endArrow=none;strokeWidth=3;strokeColor=#F08E81;html=1;" parent="1" source="1356" target="1501" edge="1">
          <mxGeometry x="-1979" y="-146.34" width="100" height="100" as="geometry">
            <mxPoint x="-1979" y="-46.34" as="sourcePoint" />
            <mxPoint x="-1879" y="-146.34" as="targetPoint" />
          </mxGeometry>
        </mxCell>
        <mxCell id="1503" value="" style="edgeStyle=none;endArrow=none;strokeWidth=3;strokeColor=#F08E81;html=1;" parent="1" source="1356" target="1490" edge="1">
          <mxGeometry x="-1979" y="-146.34" width="100" height="100" as="geometry">
            <mxPoint x="-1979" y="-46.34" as="sourcePoint" />
            <mxPoint x="-1879" y="-146.34" as="targetPoint" />
          </mxGeometry>
        </mxCell>
        <mxCell id="1504" value="" style="edgeStyle=none;endArrow=none;strokeWidth=3;strokeColor=#F08E81;html=1;" parent="1" source="1356" target="1491" edge="1">
          <mxGeometry x="-1979" y="-146.34" width="100" height="100" as="geometry">
            <mxPoint x="-1979" y="-46.34" as="sourcePoint" />
            <mxPoint x="-1879" y="-146.34" as="targetPoint" />
          </mxGeometry>
        </mxCell>
        <mxCell id="1505" value="" style="edgeStyle=none;endArrow=none;strokeWidth=3;strokeColor=#F08E81;html=1;" parent="1" source="1356" target="1492" edge="1">
          <mxGeometry x="-1979" y="-146.34" width="100" height="100" as="geometry">
            <mxPoint x="-1979" y="-46.34" as="sourcePoint" />
            <mxPoint x="-1879" y="-146.34" as="targetPoint" />
          </mxGeometry>
        </mxCell>
        <mxCell id="1506" value="" style="edgeStyle=none;endArrow=none;strokeWidth=3;strokeColor=#F08E81;html=1;" parent="1" source="1356" target="1493" edge="1">
          <mxGeometry x="-1979" y="-146.34" width="100" height="100" as="geometry">
            <mxPoint x="-1979" y="-46.34" as="sourcePoint" />
            <mxPoint x="-1879" y="-146.34" as="targetPoint" />
          </mxGeometry>
        </mxCell>
        <mxCell id="1507" value="" style="edgeStyle=none;endArrow=none;strokeWidth=3;strokeColor=#F08E81;html=1;" parent="1" source="1356" target="1494" edge="1">
          <mxGeometry x="-1979" y="-146.34" width="100" height="100" as="geometry">
            <mxPoint x="-1979" y="-46.34" as="sourcePoint" />
            <mxPoint x="-1879" y="-146.34" as="targetPoint" />
          </mxGeometry>
        </mxCell>
        <mxCell id="1508" value="" style="edgeStyle=none;endArrow=none;strokeWidth=3;strokeColor=#F08E81;html=1;" parent="1" source="1356" target="1495" edge="1">
          <mxGeometry x="-1979" y="-146.34" width="100" height="100" as="geometry">
            <mxPoint x="-1979" y="-46.34" as="sourcePoint" />
            <mxPoint x="-1879" y="-146.34" as="targetPoint" />
          </mxGeometry>
        </mxCell>
        <mxCell id="1509" value="" style="edgeStyle=none;endArrow=none;strokeWidth=3;strokeColor=#F08E81;html=1;" parent="1" source="1356" target="1496" edge="1">
          <mxGeometry x="-1979" y="-146.34" width="100" height="100" as="geometry">
            <mxPoint x="-1979" y="-46.34" as="sourcePoint" />
            <mxPoint x="-1879" y="-146.34" as="targetPoint" />
          </mxGeometry>
        </mxCell>
        <mxCell id="1510" value="" style="edgeStyle=none;endArrow=none;strokeWidth=3;strokeColor=#F08E81;html=1;" parent="1" source="1356" target="1497" edge="1">
          <mxGeometry x="-1979" y="-146.34" width="100" height="100" as="geometry">
            <mxPoint x="-1979" y="-46.34" as="sourcePoint" />
            <mxPoint x="-1879" y="-146.34" as="targetPoint" />
          </mxGeometry>
        </mxCell>
        <mxCell id="1511" value="" style="edgeStyle=none;endArrow=none;strokeWidth=3;strokeColor=#F08E81;html=1;" parent="1" source="1356" target="1498" edge="1">
          <mxGeometry x="-1979" y="-146.34" width="100" height="100" as="geometry">
            <mxPoint x="-1979" y="-46.34" as="sourcePoint" />
            <mxPoint x="-1879" y="-146.34" as="targetPoint" />
          </mxGeometry>
        </mxCell>
        <mxCell id="1512" value="" style="edgeStyle=none;endArrow=none;strokeWidth=3;strokeColor=#F08E81;html=1;" parent="1" source="1356" target="1499" edge="1">
          <mxGeometry x="-1979" y="-146.34" width="100" height="100" as="geometry">
            <mxPoint x="-1979" y="-46.34" as="sourcePoint" />
            <mxPoint x="-1879" y="-146.34" as="targetPoint" />
          </mxGeometry>
        </mxCell>
        <mxCell id="1513" value="" style="edgeStyle=none;endArrow=none;strokeWidth=3;strokeColor=#F08E81;html=1;" parent="1" source="1356" target="1500" edge="1">
          <mxGeometry x="-1979" y="-146.34" width="100" height="100" as="geometry">
            <mxPoint x="-1979" y="-46.34" as="sourcePoint" />
            <mxPoint x="-1879" y="-146.34" as="targetPoint" />
          </mxGeometry>
        </mxCell>
        <mxCell id="1515" value="Surat Rektor &lt;br&gt;821-2020&lt;br&gt;&lt;br&gt;Petunjuk Kerja Program Pengawasan SPI-UT" style="ellipse;whiteSpace=wrap;html=1;shadow=0;fontFamily=Helvetica;fontSize=30;fontColor=#2F5B7C;align=center;strokeColor=#2F5B7C;strokeWidth=6;fillColor=#FFFFFF;fontStyle=1;gradientColor=none;" parent="1" vertex="1">
          <mxGeometry x="-1120" y="53.25" width="409" height="416.5" as="geometry" />
        </mxCell>
        <mxCell id="1516" value="Tree" style="ellipse;whiteSpace=wrap;html=1;shadow=0;fontFamily=Helvetica;fontSize=20;fontColor=#FFFFFF;align=center;strokeWidth=3;fillColor=#736ca8;strokeColor=none;" parent="1" vertex="1">
          <mxGeometry x="-3317.5" y="532.16" width="120" height="120" as="geometry" />
        </mxCell>
        <mxCell id="1517" value="Organisation" style="rounded=1;fillColor=#a29dc5;strokeColor=none;strokeWidth=3;shadow=0;html=1;fontColor=#FFFFFF;" parent="1" vertex="1">
          <mxGeometry x="-3785" y="813.66" width="120" height="40" as="geometry" />
        </mxCell>
        <mxCell id="1518" value="Oak" style="rounded=1;fillColor=#a29dc5;strokeColor=none;strokeWidth=3;shadow=0;html=1;fontColor=#FFFFFF;" parent="1" vertex="1">
          <mxGeometry x="-3677.5" y="753.66" width="120" height="40" as="geometry" />
        </mxCell>
        <mxCell id="1519" value="Birch" style="rounded=1;fillColor=#a29dc5;strokeColor=none;strokeWidth=3;shadow=0;html=1;fontColor=#FFFFFF;" parent="1" vertex="1">
          <mxGeometry x="-3537.5" y="763.66" width="120" height="40" as="geometry" />
        </mxCell>
        <mxCell id="1520" value="Silverfern" style="rounded=1;fillColor=#a29dc5;strokeColor=none;strokeWidth=3;shadow=0;html=1;fontColor=#FFFFFF;" parent="1" vertex="1">
          <mxGeometry x="-3472.5" y="833.66" width="120" height="40" as="geometry" />
        </mxCell>
        <mxCell id="1521" value="Personal &#xa;Development" style="rounded=1;fillColor=#a29dc5;strokeColor=none;strokeWidth=3;shadow=0;html=1;fontColor=#FFFFFF;" parent="1" vertex="1">
          <mxGeometry x="-3447.5" y="913.66" width="120" height="40" as="geometry" />
        </mxCell>
        <mxCell id="1522" value="Pine" style="rounded=1;fillColor=#a29dc5;strokeColor=none;strokeWidth=3;shadow=0;html=1;fontColor=#FFFFFF;" parent="1" vertex="1">
          <mxGeometry x="-3920" y="833.66" width="120" height="40" as="geometry" />
        </mxCell>
        <mxCell id="1523" value="Lime" style="rounded=1;fillColor=#a29dc5;strokeColor=none;strokeWidth=3;shadow=0;html=1;fontColor=#FFFFFF;" parent="1" vertex="1">
          <mxGeometry x="-3581" y="881.16" width="120" height="40" as="geometry" />
        </mxCell>
        <mxCell id="1524" value="Chestnut" style="rounded=1;fillColor=#a29dc5;strokeColor=none;strokeWidth=3;shadow=0;html=1;fontColor=#FFFFFF;" parent="1" vertex="1">
          <mxGeometry x="-3631" y="941.16" width="120" height="40" as="geometry" />
        </mxCell>
        <mxCell id="1525" value="Beech" style="rounded=1;fillColor=#a29dc5;strokeColor=none;strokeWidth=3;shadow=0;html=1;fontColor=#FFFFFF;" parent="1" vertex="1">
          <mxGeometry x="-3771" y="941.16" width="120" height="40" as="geometry" />
        </mxCell>
        <mxCell id="1526" value="Poplar" style="rounded=1;fillColor=#a29dc5;strokeColor=none;strokeWidth=3;shadow=0;html=1;fontColor=#FFFFFF;" parent="1" vertex="1">
          <mxGeometry x="-3845" y="1048.66" width="120" height="40" as="geometry" />
        </mxCell>
        <mxCell id="1527" value="Willow" style="rounded=1;fillColor=#a29dc5;strokeColor=none;strokeWidth=3;shadow=0;html=1;fontColor=#FFFFFF;" parent="1" vertex="1">
          <mxGeometry x="-3950" y="993.66" width="120" height="40" as="geometry" />
        </mxCell>
        <mxCell id="1528" value="" style="edgeStyle=none;endArrow=none;strokeWidth=3;strokeColor=#A29DC5;html=1;" parent="1" source="1516" target="1517" edge="1">
          <mxGeometry x="-3746.5" y="-316.34000000000003" width="100" height="100" as="geometry">
            <mxPoint x="-3746.5" y="-216.34" as="sourcePoint" />
            <mxPoint x="-3646.5" y="-316.34000000000003" as="targetPoint" />
          </mxGeometry>
        </mxCell>
        <mxCell id="1529" value="Acacia" style="rounded=1;fillColor=#a29dc5;strokeColor=none;strokeWidth=3;shadow=0;html=1;fontColor=#FFFFFF;" parent="1" vertex="1">
          <mxGeometry x="-3910" y="923.66" width="120" height="40" as="geometry" />
        </mxCell>
        <mxCell id="1530" value="" style="edgeStyle=none;endArrow=none;strokeWidth=3;strokeColor=#A29DC5;html=1;" parent="1" source="1516" target="1518" edge="1">
          <mxGeometry x="-3746.5" y="-316.34000000000003" width="100" height="100" as="geometry">
            <mxPoint x="-3746.5" y="-216.34" as="sourcePoint" />
            <mxPoint x="-3646.5" y="-316.34000000000003" as="targetPoint" />
          </mxGeometry>
        </mxCell>
        <mxCell id="1531" value="" style="edgeStyle=none;endArrow=none;strokeWidth=3;strokeColor=#A29DC5;html=1;" parent="1" source="1516" target="1519" edge="1">
          <mxGeometry x="-3746.5" y="-316.34000000000003" width="100" height="100" as="geometry">
            <mxPoint x="-3746.5" y="-216.34" as="sourcePoint" />
            <mxPoint x="-3646.5" y="-316.34000000000003" as="targetPoint" />
          </mxGeometry>
        </mxCell>
        <mxCell id="1532" value="" style="edgeStyle=none;endArrow=none;strokeWidth=3;strokeColor=#A29DC5;html=1;" parent="1" source="1516" target="1520" edge="1">
          <mxGeometry x="-3746.5" y="-316.34000000000003" width="100" height="100" as="geometry">
            <mxPoint x="-3746.5" y="-216.34" as="sourcePoint" />
            <mxPoint x="-3646.5" y="-316.34000000000003" as="targetPoint" />
          </mxGeometry>
        </mxCell>
        <mxCell id="1533" value="" style="edgeStyle=none;endArrow=none;strokeWidth=3;strokeColor=#A29DC5;html=1;" parent="1" source="1516" target="1521" edge="1">
          <mxGeometry x="-3746.5" y="-316.34000000000003" width="100" height="100" as="geometry">
            <mxPoint x="-3746.5" y="-216.34" as="sourcePoint" />
            <mxPoint x="-3646.5" y="-316.34000000000003" as="targetPoint" />
          </mxGeometry>
        </mxCell>
        <mxCell id="1534" value="" style="edgeStyle=none;endArrow=none;strokeWidth=3;strokeColor=#A29DC5;html=1;" parent="1" source="1516" target="1522" edge="1">
          <mxGeometry x="-3746.5" y="-316.34000000000003" width="100" height="100" as="geometry">
            <mxPoint x="-3746.5" y="-216.34" as="sourcePoint" />
            <mxPoint x="-3646.5" y="-316.34000000000003" as="targetPoint" />
          </mxGeometry>
        </mxCell>
        <mxCell id="1535" value="" style="edgeStyle=none;endArrow=none;strokeWidth=3;strokeColor=#A29DC5;html=1;" parent="1" source="1516" target="1523" edge="1">
          <mxGeometry x="-3746.5" y="-316.34000000000003" width="100" height="100" as="geometry">
            <mxPoint x="-3746.5" y="-216.34" as="sourcePoint" />
            <mxPoint x="-3646.5" y="-316.34000000000003" as="targetPoint" />
          </mxGeometry>
        </mxCell>
        <mxCell id="1536" value="" style="edgeStyle=none;endArrow=none;strokeWidth=3;strokeColor=#A29DC5;html=1;" parent="1" source="1516" target="1524" edge="1">
          <mxGeometry x="-3746.5" y="-316.34000000000003" width="100" height="100" as="geometry">
            <mxPoint x="-3746.5" y="-216.34" as="sourcePoint" />
            <mxPoint x="-3646.5" y="-316.34000000000003" as="targetPoint" />
          </mxGeometry>
        </mxCell>
        <mxCell id="1537" value="" style="edgeStyle=none;endArrow=none;strokeWidth=3;strokeColor=#A29DC5;html=1;" parent="1" source="1516" target="1525" edge="1">
          <mxGeometry x="-3746.5" y="-316.34000000000003" width="100" height="100" as="geometry">
            <mxPoint x="-3746.5" y="-216.34" as="sourcePoint" />
            <mxPoint x="-3646.5" y="-316.34000000000003" as="targetPoint" />
          </mxGeometry>
        </mxCell>
        <mxCell id="1538" value="" style="edgeStyle=none;endArrow=none;strokeWidth=3;strokeColor=#A29DC5;html=1;" parent="1" source="1516" target="1526" edge="1">
          <mxGeometry x="-3746.5" y="-316.34000000000003" width="100" height="100" as="geometry">
            <mxPoint x="-3746.5" y="-216.34" as="sourcePoint" />
            <mxPoint x="-3646.5" y="-316.34000000000003" as="targetPoint" />
          </mxGeometry>
        </mxCell>
        <mxCell id="1539" value="" style="edgeStyle=none;endArrow=none;strokeWidth=3;strokeColor=#A29DC5;html=1;" parent="1" source="1516" target="1527" edge="1">
          <mxGeometry x="-3746.5" y="-316.34000000000003" width="100" height="100" as="geometry">
            <mxPoint x="-3746.5" y="-216.34" as="sourcePoint" />
            <mxPoint x="-3646.5" y="-316.34000000000003" as="targetPoint" />
          </mxGeometry>
        </mxCell>
        <mxCell id="1540" value="" style="edgeStyle=none;endArrow=none;strokeWidth=3;strokeColor=#A29DC5;html=1;" parent="1" source="1516" target="1529" edge="1">
          <mxGeometry x="-3746.5" y="-316.34000000000003" width="100" height="100" as="geometry">
            <mxPoint x="-3746.5" y="-216.34" as="sourcePoint" />
            <mxPoint x="-3646.5" y="-316.34000000000003" as="targetPoint" />
          </mxGeometry>
        </mxCell>
        <mxCell id="1541" value="" style="edgeStyle=none;endArrow=none;strokeWidth=3;strokeColor=#A29DC5;html=1;" parent="1" source="1354" target="1459" edge="1">
          <mxGeometry x="-3341.5" y="-606.34" width="100" height="100" as="geometry">
            <mxPoint x="-3341.5" y="-506.34000000000003" as="sourcePoint" />
            <mxPoint x="-3241.5" y="-606.34" as="targetPoint" />
          </mxGeometry>
        </mxCell>
        <mxCell id="1542" style="edgeStyle=none;rounded=0;html=1;exitX=0.5;exitY=1;endArrow=none;endFill=0;jettySize=auto;orthogonalLoop=1;strokeColor=#736CA8;strokeWidth=2;fillColor=#64bbe2;fontSize=20;fontColor=#23445D;" parent="1" source="1529" target="1529" edge="1">
          <mxGeometry relative="1" as="geometry" />
        </mxCell>
        <mxCell id="xDNytKt1A_5V0aNAH69Z-1556" style="edgeStyle=none;rounded=0;orthogonalLoop=1;jettySize=auto;html=1;fontSize=12;strokeColor=#D4E1F5;strokeWidth=2;fontColor=#000000;" parent="1" source="xDNytKt1A_5V0aNAH69Z-1542" target="xDNytKt1A_5V0aNAH69Z-1555" edge="1">
          <mxGeometry relative="1" as="geometry" />
        </mxCell>
        <mxCell id="xDNytKt1A_5V0aNAH69Z-1557" value="agar" style="edgeLabel;html=1;align=center;verticalAlign=middle;resizable=0;points=[];fontSize=12;fontColor=#000000;" parent="xDNytKt1A_5V0aNAH69Z-1556" vertex="1" connectable="0">
          <mxGeometry x="-0.3817" y="1" relative="1" as="geometry">
            <mxPoint x="8" y="1" as="offset" />
          </mxGeometry>
        </mxCell>
        <mxCell id="xDNytKt1A_5V0aNAH69Z-1542" value="Penyelenggaraan tugas dan fungsi organisasi&amp;nbsp;" style="rounded=1;whiteSpace=wrap;html=1;fontSize=12;strokeColor=none;fillColor=#A9C4EB;fontColor=#000000;" parent="1" vertex="1">
          <mxGeometry x="-510" y="-443" width="120" height="60" as="geometry" />
        </mxCell>
        <mxCell id="xDNytKt1A_5V0aNAH69Z-1550" value="terhadap" style="text;html=1;strokeColor=none;fillColor=none;align=center;verticalAlign=middle;whiteSpace=wrap;rounded=0;fontSize=12;fontColor=#000000;" parent="1" vertex="1">
          <mxGeometry x="-610" y="-431.75" width="60" height="30" as="geometry" />
        </mxCell>
        <mxCell id="xDNytKt1A_5V0aNAH69Z-1554" value="" style="edgeStyle=none;rounded=0;orthogonalLoop=1;jettySize=auto;html=1;entryX=0;entryY=0.5;entryDx=0;entryDy=0;fontSize=12;strokeColor=#A9C4EB;strokeWidth=2;endArrow=none;fillColor=#dae8fc;fontColor=#000000;" parent="1" source="1369" target="xDNytKt1A_5V0aNAH69Z-1550" edge="1">
          <mxGeometry relative="1" as="geometry">
            <mxPoint x="-644.25" y="-392.57779171894595" as="sourcePoint" />
            <mxPoint x="-510" y="-400.9999999999998" as="targetPoint" />
          </mxGeometry>
        </mxCell>
        <mxCell id="xDNytKt1A_5V0aNAH69Z-1555" value="memberikan keyakinan yang memadai" style="rounded=1;whiteSpace=wrap;html=1;fontSize=12;strokeColor=none;fillColor=#dae8fc;fontColor=#000000;" parent="1" vertex="1">
          <mxGeometry x="-319" y="-443" width="120" height="60" as="geometry" />
        </mxCell>
        <mxCell id="ofFDjcfbIGw3xVgY4F3X-1571" style="edgeStyle=orthogonalEdgeStyle;rounded=0;orthogonalLoop=1;jettySize=auto;html=1;entryX=0.676;entryY=0.003;entryDx=0;entryDy=0;entryPerimeter=0;strokeColor=#F5BD84;strokeWidth=3;exitX=1;exitY=0.5;exitDx=0;exitDy=0;fontColor=#000000;" parent="1" source="1391" target="ofFDjcfbIGw3xVgY4F3X-1546" edge="1">
          <mxGeometry relative="1" as="geometry" />
        </mxCell>
        <mxCell id="1391" value="3. PJ Bid. Organisasi, Sistem Pengawasan, Sistem Teknologi Informasi &amp;amp; Komunikasi Pengawasan, &amp;amp; Pengembangan SDM" style="rounded=1;fillColor=#F5AF58;strokeColor=none;strokeWidth=3;shadow=0;html=1;fontColor=#000000;whiteSpace=wrap;fontSize=18;" parent="1" vertex="1">
          <mxGeometry x="-480" y="470" width="380" height="83.84" as="geometry" />
        </mxCell>
        <mxCell id="1353" value="4. Mekanisme Kerja" style="ellipse;whiteSpace=wrap;html=1;shadow=0;fontFamily=Helvetica;fontSize=20;fontColor=#FFFFFF;align=center;strokeWidth=3;fillColor=#1699D3;strokeColor=none;" parent="1" vertex="1">
          <mxGeometry x="-2878.5" y="310.15999999999997" width="120" height="120" as="geometry" />
        </mxCell>
        <mxCell id="1416" value="Website" style="rounded=1;fillColor=#f08e81;strokeColor=none;strokeWidth=3;shadow=0;html=1;fontColor=#000000;whiteSpace=wrap;" parent="1" vertex="1">
          <mxGeometry x="-979" y="958.6599999999997" width="120" height="40" as="geometry" />
        </mxCell>
        <mxCell id="xDNytKt1A_5V0aNAH69Z-1567" value="" style="edgeStyle=orthogonalEdgeStyle;endArrow=none;strokeWidth=3;strokeColor=#F08E81;html=1;fontColor=#000000;" parent="1" source="1352" target="1416" edge="1">
          <mxGeometry x="-272.5" y="957.66" width="100" height="100" as="geometry">
            <mxPoint x="-773.5646680413456" y="1089.2738439657614" as="sourcePoint" />
            <mxPoint x="1612.5" y="1190.1252915509722" as="targetPoint" />
            <Array as="points">
              <mxPoint x="-770" y="979" />
            </Array>
          </mxGeometry>
        </mxCell>
        <mxCell id="xDNytKt1A_5V0aNAH69Z-1568" value="Aplikasi" style="rounded=1;fillColor=#f08e81;strokeColor=none;strokeWidth=3;shadow=0;html=1;fontColor=#000000;whiteSpace=wrap;" parent="1" vertex="1">
          <mxGeometry x="-979" y="1200.8399999999997" width="120" height="40" as="geometry" />
        </mxCell>
        <mxCell id="xDNytKt1A_5V0aNAH69Z-1569" value="" style="edgeStyle=orthogonalEdgeStyle;endArrow=none;strokeWidth=3;strokeColor=#F08E81;html=1;entryX=1;entryY=0.5;entryDx=0;entryDy=0;" parent="1" source="1352" target="xDNytKt1A_5V0aNAH69Z-1568" edge="1">
          <mxGeometry x="-262.5" y="967.66" width="100" height="100" as="geometry">
            <mxPoint x="-763.4999999999841" y="1096.1599999999999" as="sourcePoint" />
            <mxPoint x="-603.5" y="1096.1599999999999" as="targetPoint" />
            <Array as="points">
              <mxPoint x="-720" y="1220" />
              <mxPoint x="-859" y="1220" />
            </Array>
          </mxGeometry>
        </mxCell>
        <mxCell id="xDNytKt1A_5V0aNAH69Z-1601" value="" style="group;fontColor=#000000;" parent="1" vertex="1" connectable="0">
          <mxGeometry x="-479.38" y="970.84" width="460" height="270" as="geometry" />
        </mxCell>
        <mxCell id="xDNytKt1A_5V0aNAH69Z-1596" value="" style="rounded=1;whiteSpace=wrap;html=1;fontSize=18;strokeColor=none;fillColor=#fad7ac;fontColor=#000000;" parent="xDNytKt1A_5V0aNAH69Z-1601" vertex="1">
          <mxGeometry width="460" height="270" as="geometry" />
        </mxCell>
        <mxCell id="xDNytKt1A_5V0aNAH69Z-1597" value="1.&amp;nbsp;Membantu mempersiapkan bahan, data, dan informasi untuk pelaksanaan penyusunan PKA, perencanaan monitoring, dan perencanaan audit sesuai dengan wilayah tanggungjawabnya" style="rounded=1;fillColor=#F5BD84;strokeColor=none;strokeWidth=3;shadow=0;html=1;fontColor=#000000;whiteSpace=wrap;" parent="xDNytKt1A_5V0aNAH69Z-1601" vertex="1">
          <mxGeometry x="20" y="16.279999999999973" width="190" height="112.75" as="geometry" />
        </mxCell>
        <mxCell id="xDNytKt1A_5V0aNAH69Z-1598" value="2.&amp;nbsp;&lt;span style=&quot;background-color: initial;&quot;&gt;Membantu memantau dan merekapitulasi hasil kegiatan audit, monitoring, reviu, dan evalluasi sesuai dengan wilayah tanggungjawabnya.&lt;/span&gt;&lt;div&gt;&lt;br&gt;&lt;/div&gt;" style="rounded=1;fillColor=#F5BD84;strokeColor=none;strokeWidth=3;shadow=0;html=1;fontColor=#000000;whiteSpace=wrap;" parent="xDNytKt1A_5V0aNAH69Z-1601" vertex="1">
          <mxGeometry x="20" y="139.02999999999997" width="190" height="112.75" as="geometry" />
        </mxCell>
        <mxCell id="xDNytKt1A_5V0aNAH69Z-1599" value="4.&amp;nbsp;&lt;span style=&quot;background-color: initial;&quot;&gt;Melaksanakan tugas-tugas lain dari Ketua SPI.&lt;br&gt;&lt;/span&gt;" style="rounded=1;fillColor=#F5BD84;strokeColor=none;strokeWidth=3;shadow=0;html=1;fontColor=#000000;whiteSpace=wrap;" parent="xDNytKt1A_5V0aNAH69Z-1601" vertex="1">
          <mxGeometry x="220" y="139.91" width="220" height="40.09" as="geometry" />
        </mxCell>
        <mxCell id="xDNytKt1A_5V0aNAH69Z-1600" value="3.&amp;nbsp;Mengelola administrasi dan mendokumentasikan hasil kegiatan audit, monitoring, reviu, dan evaluasi sesuai dengan wilayah tanggungjawabnya, baik manual maupun melalui aplikasi pengawasan." style="rounded=1;fillColor=#F5BD84;strokeColor=none;strokeWidth=3;shadow=0;html=1;fontColor=#000000;whiteSpace=wrap;" parent="xDNytKt1A_5V0aNAH69Z-1601" vertex="1">
          <mxGeometry x="220" y="18.16999999999996" width="220" height="112.75" as="geometry" />
        </mxCell>
        <mxCell id="ofFDjcfbIGw3xVgY4F3X-1544" value="" style="group;fontColor=#000000;" parent="1" vertex="1" connectable="0">
          <mxGeometry x="-479.38" y="136" width="650" height="270" as="geometry" />
        </mxCell>
        <mxCell id="xDNytKt1A_5V0aNAH69Z-1605" value="" style="rounded=1;whiteSpace=wrap;html=1;fontSize=18;strokeColor=none;fillColor=#fad7ac;fontColor=#000000;" parent="ofFDjcfbIGw3xVgY4F3X-1544" vertex="1">
          <mxGeometry width="650" height="270" as="geometry" />
        </mxCell>
        <mxCell id="xDNytKt1A_5V0aNAH69Z-1606" value="(1) Merencanakan, mempersiapkan, dan melaksanakan kegiatan Bidang Reviu, Monitoring, dan Evaluasi yang meliputi:&lt;br&gt;&lt;ol style=&quot;font-size: 10px;&quot;&gt;&lt;li style=&quot;text-align: left;&quot;&gt;&lt;font style=&quot;font-size: 10px;&quot;&gt;&lt;span style=&quot;background-color: initial;&quot;&gt;Reviu RKA-KL&lt;br&gt;&lt;/span&gt;&lt;/font&gt;&lt;/li&gt;&lt;li style=&quot;text-align: left;&quot;&gt;&lt;font style=&quot;font-size: 10px;&quot;&gt;Reviu LapKeu UT&lt;/font&gt;&lt;/li&gt;&lt;li style=&quot;text-align: left;&quot;&gt;&lt;font style=&quot;font-size: 10px;&quot;&gt;&lt;span style=&quot;background-color: initial;&quot;&gt;Monitoring daya serap anggaran dan realisasinya&lt;/span&gt;&lt;/font&gt;&lt;/li&gt;&lt;li style=&quot;text-align: left;&quot;&gt;&lt;font style=&quot;font-size: 10px;&quot;&gt;&lt;span style=&quot;background-color: initial;&quot;&gt;Reviu Lap. Kinerja UT&lt;/span&gt;&lt;/font&gt;&lt;/li&gt;&lt;li style=&quot;text-align: left;&quot;&gt;&lt;font style=&quot;font-size: 10px;&quot;&gt;&lt;span style=&quot;background-color: initial;&quot;&gt;Reviu RKA unit UT dan unit SPI&lt;/span&gt;&lt;/font&gt;&lt;/li&gt;&lt;li style=&quot;text-align: left;&quot;&gt;&lt;font style=&quot;font-size: 10px;&quot;&gt;&lt;span style=&quot;background-color: initial;&quot;&gt;&lt;font style=&quot;font-size: 10px;&quot;&gt;Evaluasi penyelenggaraan kelayakan program/prodi yang ditawarkan UT&lt;/font&gt;&lt;/span&gt;&lt;/font&gt;&lt;/li&gt;&lt;li style=&quot;text-align: left;&quot;&gt;&lt;font style=&quot;font-size: 10px;&quot;&gt;&lt;span style=&quot;background-color: initial;&quot;&gt;Reviu RBA UT&lt;/span&gt;&lt;/font&gt;&lt;/li&gt;&lt;li style=&quot;text-align: left;&quot;&gt;&lt;span style=&quot;background-color: initial;&quot;&gt;&lt;font style=&quot;font-size: 10px;&quot;&gt;Reviu Siakunlap/aplikasi sejenis&lt;/font&gt;&lt;/span&gt;&lt;/li&gt;&lt;/ol&gt;" style="rounded=1;fillColor=#F5BD84;strokeColor=none;strokeWidth=3;shadow=0;html=1;fontColor=#000000;whiteSpace=wrap;" parent="ofFDjcfbIGw3xVgY4F3X-1544" vertex="1">
          <mxGeometry x="16.5" y="7.25" width="253.5" height="192.75" as="geometry" />
        </mxCell>
        <mxCell id="xDNytKt1A_5V0aNAH69Z-1610" value="&lt;span style=&quot;background-color: initial;&quot;&gt;(2)&amp;nbsp;&lt;/span&gt;&lt;span style=&quot;background-color: initial;&quot;&gt;Mengembangkan dan memutakhirkan standar dan instrumen untuk kegiatan, Reviu, Monitoring, dan Evaluasi&lt;br&gt;&lt;/span&gt;" style="rounded=1;fillColor=#F5BD84;strokeColor=none;strokeWidth=3;shadow=0;html=1;fontColor=#000000;whiteSpace=wrap;" parent="ofFDjcfbIGw3xVgY4F3X-1544" vertex="1">
          <mxGeometry x="16.5" y="205.49" width="253.5" height="54.51" as="geometry" />
        </mxCell>
        <mxCell id="xDNytKt1A_5V0aNAH69Z-1613" value="&lt;span style=&quot;background-color: initial;&quot;&gt;(3) Mengkoordinasikan pelaksanaan kegiatan e-LHKPN UT yang meliputi:&lt;br&gt;&lt;br&gt;&lt;br&gt;&lt;br&gt;&lt;br&gt;&lt;br&gt;&lt;br&gt;&amp;nbsp;&lt;br&gt;&lt;/span&gt;" style="rounded=1;fillColor=#F5BD84;strokeColor=none;strokeWidth=3;shadow=0;html=1;fontColor=#000000;whiteSpace=wrap;" parent="ofFDjcfbIGw3xVgY4F3X-1544" vertex="1">
          <mxGeometry x="281.5" y="10" width="163" height="160" as="geometry" />
        </mxCell>
        <mxCell id="xDNytKt1A_5V0aNAH69Z-1615" value="&lt;span style=&quot;background-color: initial;&quot;&gt;(5) Melaporkan kpd Ketua SPI seluruh hasil penyelenggaraan kegiatan Bidang Reviu, Monitoring, Evaluasi, dan Urusan LHKPN secara berkala&lt;br&gt;&lt;/span&gt;" style="rounded=1;fillColor=#F5BD84;strokeColor=none;strokeWidth=3;shadow=0;html=1;fontColor=#000000;whiteSpace=wrap;" parent="ofFDjcfbIGw3xVgY4F3X-1544" vertex="1">
          <mxGeometry x="451" y="10" width="179" height="90" as="geometry" />
        </mxCell>
        <mxCell id="xDNytKt1A_5V0aNAH69Z-1616" value="&lt;span style=&quot;background-color: initial;&quot;&gt;(6) Melaksanakan tugas lain dari pimpinan SPI&lt;br&gt;&lt;/span&gt;" style="rounded=1;fillColor=#F5BD84;strokeColor=none;strokeWidth=3;shadow=0;html=1;fontColor=#000000;whiteSpace=wrap;" parent="ofFDjcfbIGw3xVgY4F3X-1544" vertex="1">
          <mxGeometry x="451" y="105" width="179" height="45" as="geometry" />
        </mxCell>
        <mxCell id="xDNytKt1A_5V0aNAH69Z-1617" value="&lt;span style=&quot;background-color: initial;&quot;&gt;(4) Melaporkan hasil kegiatan pelaporan LHKPN UT kpd Ketua SPI secara bertahap&lt;br&gt;&lt;/span&gt;" style="rounded=1;fillColor=#F5BD84;strokeColor=none;strokeWidth=3;shadow=0;html=1;fontColor=#000000;whiteSpace=wrap;" parent="ofFDjcfbIGw3xVgY4F3X-1544" vertex="1">
          <mxGeometry x="284.5" y="180" width="160" height="80" as="geometry" />
        </mxCell>
        <mxCell id="xDNytKt1A_5V0aNAH69Z-1619" value="&lt;span style=&quot;background-color: initial; font-size: 8px;&quot;&gt;a. mendaftarkan/&lt;br&gt;mengaktifkan akun wajib lapor&lt;br style=&quot;font-size: 8px;&quot;&gt;&lt;/span&gt;" style="rounded=1;fillColor=#F5CBA2;strokeColor=none;strokeWidth=3;shadow=0;html=1;fontColor=#000000;whiteSpace=wrap;fontSize=8;" parent="ofFDjcfbIGw3xVgY4F3X-1544" vertex="1">
          <mxGeometry x="290" y="70.16" width="70" height="39.84" as="geometry" />
        </mxCell>
        <mxCell id="xDNytKt1A_5V0aNAH69Z-1620" value="&lt;span style=&quot;background-color: initial; font-size: 8px;&quot;&gt;b. memberikan formulir e-LHKPN kpd Wajib Lapor (WL)&lt;br style=&quot;font-size: 8px;&quot;&gt;&lt;/span&gt;" style="rounded=1;fillColor=#F5CBA2;strokeColor=none;strokeWidth=3;shadow=0;html=1;fontColor=#000000;whiteSpace=wrap;fontSize=8;" parent="ofFDjcfbIGw3xVgY4F3X-1544" vertex="1">
          <mxGeometry x="290" y="115.07999999999998" width="70" height="39.84" as="geometry" />
        </mxCell>
        <mxCell id="xDNytKt1A_5V0aNAH69Z-1621" value="&lt;span style=&quot;background-color: initial; font-size: 8px;&quot;&gt;d. memastikan status pelaporan WL pada kantor KPK&lt;br style=&quot;font-size: 8px;&quot;&gt;&lt;/span&gt;" style="rounded=1;fillColor=#F5CBA2;strokeColor=none;strokeWidth=3;shadow=0;html=1;fontColor=#000000;whiteSpace=wrap;fontSize=8;" parent="ofFDjcfbIGw3xVgY4F3X-1544" vertex="1">
          <mxGeometry x="370" y="115.07999999999998" width="70" height="39.84" as="geometry" />
        </mxCell>
        <mxCell id="xDNytKt1A_5V0aNAH69Z-1622" value="&lt;span style=&quot;background-color: initial; font-size: 8px;&quot;&gt;c. mengirimkan berkas laporan WL ke KPK&lt;br style=&quot;font-size: 8px;&quot;&gt;&lt;/span&gt;" style="rounded=1;fillColor=#F5CBA2;strokeColor=none;strokeWidth=3;shadow=0;html=1;fontColor=#000000;whiteSpace=wrap;fontSize=8;" parent="ofFDjcfbIGw3xVgY4F3X-1544" vertex="1">
          <mxGeometry x="370" y="70.15999999999997" width="70" height="39.84" as="geometry" />
        </mxCell>
        <mxCell id="ofFDjcfbIGw3xVgY4F3X-1570" value="" style="group;fontColor=#000000;" parent="1" vertex="1" connectable="0">
          <mxGeometry x="-479.38" y="561.5" width="610" height="310" as="geometry" />
        </mxCell>
        <mxCell id="ofFDjcfbIGw3xVgY4F3X-1546" value="" style="rounded=1;whiteSpace=wrap;html=1;fontSize=18;strokeColor=none;fillColor=#fad7ac;fontColor=#000000;" parent="ofFDjcfbIGw3xVgY4F3X-1570" vertex="1">
          <mxGeometry width="610" height="310" as="geometry" />
        </mxCell>
        <mxCell id="ofFDjcfbIGw3xVgY4F3X-1549" value="&lt;span style=&quot;background-color: initial;&quot;&gt;(1) Merencanakan, mempersiapkan, dan melaksanakan kegiatan yang berkaitan dengan Bidang Organisasi, Sistem Pengawasan, Sistem Teknologi Informasi &amp;amp; Komunikasi Pengawasan, dan Pengembangan Sumber Daya Manusia (SDM) yang meliputi:&amp;nbsp;&lt;br&gt;&lt;br&gt;&lt;br&gt;&lt;br&gt;&lt;br&gt;&lt;br&gt;&lt;br&gt;&lt;br&gt;&lt;br&gt;&lt;br&gt;&lt;br&gt;&lt;br&gt;&lt;br&gt;&lt;br&gt;&amp;nbsp;&lt;br&gt;&lt;/span&gt;" style="rounded=1;fillColor=#F5BD84;strokeColor=none;strokeWidth=3;shadow=0;html=1;fontColor=#000000;whiteSpace=wrap;" parent="ofFDjcfbIGw3xVgY4F3X-1570" vertex="1">
          <mxGeometry x="16.5" y="10" width="333.5" height="290" as="geometry" />
        </mxCell>
        <mxCell id="ofFDjcfbIGw3xVgY4F3X-1550" value="&lt;span style=&quot;background-color: initial;&quot;&gt;(2)&amp;nbsp;&lt;/span&gt;&lt;span style=&quot;background-color: initial;&quot;&gt;Melakukan evaluasi dan monitoring seluruh kegiatan Bidang Organisasi, Sistem Pengawasan, Sistem Teknologi Informasi Komunikasi Pengawasan, dan Pengcmbangan SDM.&amp;nbsp;&lt;br&gt;&lt;/span&gt;" style="rounded=1;fillColor=#F5BD84;strokeColor=none;strokeWidth=3;shadow=0;html=1;fontColor=#000000;whiteSpace=wrap;" parent="ofFDjcfbIGw3xVgY4F3X-1570" vertex="1">
          <mxGeometry x="360" y="15" width="230" height="90" as="geometry" />
        </mxCell>
        <mxCell id="ofFDjcfbIGw3xVgY4F3X-1551" value="&lt;span style=&quot;background-color: initial;&quot;&gt;(3)&amp;nbsp;&lt;/span&gt;&lt;span style=&quot;background-color: initial;&quot;&gt;Melaporkan kepada Ketua SPI seluruh hasil penyelenggaraan kegiatan di Bidang Organisasi, Sistem Pengawasan, Sistem Teknologi Informasi Komunikasi Pengawasan, dan Pengembangan SDM.&amp;nbsp;&lt;br&gt;&lt;/span&gt;" style="rounded=1;fillColor=#F5BD84;strokeColor=none;strokeWidth=3;shadow=0;html=1;fontColor=#000000;whiteSpace=wrap;" parent="ofFDjcfbIGw3xVgY4F3X-1570" vertex="1">
          <mxGeometry x="360" y="111.82000000000005" width="230" height="88.18" as="geometry" />
        </mxCell>
        <mxCell id="ofFDjcfbIGw3xVgY4F3X-1553" value="&lt;span style=&quot;background-color: initial;&quot;&gt;a. Mengembangkan dan memutakhirkan standar operasi kerja organisasi SPI;&amp;nbsp;&lt;br style=&quot;font-size: 8px;&quot;&gt;&lt;/span&gt;" style="rounded=1;fillColor=#F5CBA2;strokeColor=none;strokeWidth=3;shadow=0;html=1;fontColor=#000000;whiteSpace=wrap;fontSize=8;" parent="ofFDjcfbIGw3xVgY4F3X-1570" vertex="1">
          <mxGeometry x="26" y="96" width="95" height="39.84" as="geometry" />
        </mxCell>
        <mxCell id="ofFDjcfbIGw3xVgY4F3X-1558" value="&lt;span style=&quot;background-color: initial;&quot;&gt;b.&amp;nbsp;&lt;/span&gt;&lt;span style=&quot;background-color: initial;&quot;&gt;Mengembangkan dan memutakhirkan pedoman dan petunjuk kerja&amp;nbsp;&lt;br&gt;&lt;/span&gt;" style="rounded=1;fillColor=#F5CBA2;strokeColor=none;strokeWidth=3;shadow=0;html=1;fontColor=#000000;whiteSpace=wrap;fontSize=8;" parent="ofFDjcfbIGw3xVgY4F3X-1570" vertex="1">
          <mxGeometry x="26.620000000000005" y="138.91999999999996" width="95" height="34.08" as="geometry" />
        </mxCell>
        <mxCell id="ofFDjcfbIGw3xVgY4F3X-1559" value="&lt;span style=&quot;background-color: initial;&quot;&gt;c.&amp;nbsp;&lt;/span&gt;&lt;span style=&quot;background-color: initial;&quot;&gt;Mengembangkan dan memutakhirkan uraian pekerjaan Unit Kerja&amp;nbsp;&lt;br&gt;&lt;/span&gt;" style="rounded=1;fillColor=#F5CBA2;strokeColor=none;strokeWidth=3;shadow=0;html=1;fontColor=#000000;whiteSpace=wrap;fontSize=8;" parent="ofFDjcfbIGw3xVgY4F3X-1570" vertex="1">
          <mxGeometry x="26.620000000000005" y="176.82000000000005" width="95" height="36.18" as="geometry" />
        </mxCell>
        <mxCell id="ofFDjcfbIGw3xVgY4F3X-1560" value="&lt;span style=&quot;background-color: initial;&quot;&gt;d.&amp;nbsp;&lt;/span&gt;&lt;span style=&quot;background-color: initial;&quot;&gt;Menyusun istrumen evaluasi pekerjaan dan instrumen penilaian kinerja SPI;&amp;nbsp;&lt;br&gt;&lt;/span&gt;" style="rounded=1;fillColor=#F5CBA2;strokeColor=none;strokeWidth=3;shadow=0;html=1;fontColor=#000000;whiteSpace=wrap;fontSize=8;" parent="ofFDjcfbIGw3xVgY4F3X-1570" vertex="1">
          <mxGeometry x="26" y="216.65999999999997" width="95" height="39.84" as="geometry" />
        </mxCell>
        <mxCell id="ofFDjcfbIGw3xVgY4F3X-1561" value="&lt;span style=&quot;background-color: initial;&quot;&gt;e.&amp;nbsp;&lt;/span&gt;&lt;span style=&quot;background-color: initial;&quot;&gt;Mengembangkan dan mengelola sistem informasi melalui website&amp;nbsp;&lt;br&gt;&lt;/span&gt;" style="rounded=1;fillColor=#F5CBA2;strokeColor=none;strokeWidth=3;shadow=0;html=1;fontColor=#000000;whiteSpace=wrap;fontSize=8;" parent="ofFDjcfbIGw3xVgY4F3X-1570" vertex="1">
          <mxGeometry x="125.62" y="96" width="95" height="29.84" as="geometry" />
        </mxCell>
        <mxCell id="ofFDjcfbIGw3xVgY4F3X-1562" value="&lt;span style=&quot;background-color: initial;&quot;&gt;f.&amp;nbsp;&lt;/span&gt;&lt;span style=&quot;background-color: initial;&quot;&gt;Mengembangkan dan mengelola sistem audit menggunakan jaringan dan berbasis teknologi informasi;&amp;nbsp;&lt;br&gt;&lt;/span&gt;" style="rounded=1;fillColor=#F5CBA2;strokeColor=none;strokeWidth=3;shadow=0;html=1;fontColor=#000000;whiteSpace=wrap;fontSize=8;" parent="ofFDjcfbIGw3xVgY4F3X-1570" vertex="1">
          <mxGeometry x="125.62" y="133.65999999999997" width="95" height="55.18" as="geometry" />
        </mxCell>
        <mxCell id="ofFDjcfbIGw3xVgY4F3X-1563" value="&lt;span style=&quot;background-color: initial;&quot;&gt;g.&amp;nbsp;&lt;/span&gt;&lt;span style=&quot;background-color: initial;&quot;&gt;Mengembangkan dan mengelola sistem informasi manajemen serta sistem dokumentasi dan publikasi SPI;&amp;nbsp;&lt;br&gt;&lt;/span&gt;" style="rounded=1;fillColor=#F5CBA2;strokeColor=none;strokeWidth=3;shadow=0;html=1;fontColor=#000000;whiteSpace=wrap;fontSize=8;" parent="ofFDjcfbIGw3xVgY4F3X-1570" vertex="1">
          <mxGeometry x="125.62" y="192.65999999999997" width="95" height="55.18" as="geometry" />
        </mxCell>
        <mxCell id="ofFDjcfbIGw3xVgY4F3X-1564" value="&lt;span style=&quot;background-color: initial;&quot;&gt;h.&amp;nbsp;&lt;/span&gt;&lt;span style=&quot;background-color: initial;&quot;&gt;Mengembangkan dan mengelola dokumentasi dan publikasi kegiatan&amp;nbsp;&lt;br&gt;&lt;/span&gt;" style="rounded=1;fillColor=#F5CBA2;strokeColor=none;strokeWidth=3;shadow=0;html=1;fontColor=#000000;whiteSpace=wrap;fontSize=8;" parent="ofFDjcfbIGw3xVgY4F3X-1570" vertex="1">
          <mxGeometry x="229" y="96.41999999999996" width="111" height="27.58" as="geometry" />
        </mxCell>
        <mxCell id="ofFDjcfbIGw3xVgY4F3X-1566" value="&lt;span style=&quot;background-color: initial;&quot;&gt;k.&amp;nbsp;&lt;/span&gt;&lt;span style=&quot;background-color: initial;&quot;&gt;Melakukan perencanaan dan pelaksanaan peningkatan kualitas SDM dan auditor SPI.&amp;nbsp;&lt;br&gt;&lt;/span&gt;" style="rounded=1;fillColor=#F5CBA2;strokeColor=none;strokeWidth=3;shadow=0;html=1;fontColor=#000000;whiteSpace=wrap;fontSize=8;" parent="ofFDjcfbIGw3xVgY4F3X-1570" vertex="1">
          <mxGeometry x="229" y="225.15999999999997" width="105.38" height="46" as="geometry" />
        </mxCell>
        <mxCell id="ofFDjcfbIGw3xVgY4F3X-1567" value="&lt;span style=&quot;background-color: initial;&quot;&gt;j.&amp;nbsp;&lt;/span&gt;&lt;span style=&quot;background-color: initial;&quot;&gt;Bersama-bersama PJ Bidang Audit melakukan perekrutan dan seleksi auditor SPI;&amp;nbsp;&lt;br&gt;&lt;/span&gt;" style="rounded=1;fillColor=#F5CBA2;strokeColor=none;strokeWidth=3;shadow=0;html=1;fontColor=#000000;whiteSpace=wrap;fontSize=8;" parent="ofFDjcfbIGw3xVgY4F3X-1570" vertex="1">
          <mxGeometry x="229" y="176.15999999999997" width="105.38" height="45" as="geometry" />
        </mxCell>
        <mxCell id="ofFDjcfbIGw3xVgY4F3X-1568" value="&lt;span style=&quot;background-color: initial;&quot;&gt;i.&amp;nbsp;&lt;/span&gt;&lt;span style=&quot;background-color: initial;&quot;&gt;Bersama-bersama PJ Bidang Audit merencanakan kebutuhan SDM dan kebutuhan auditor SPI;&amp;nbsp;&lt;br&gt;&lt;/span&gt;" style="rounded=1;fillColor=#F5CBA2;strokeColor=none;strokeWidth=3;shadow=0;html=1;fontColor=#000000;whiteSpace=wrap;fontSize=8;" parent="ofFDjcfbIGw3xVgY4F3X-1570" vertex="1">
          <mxGeometry x="229" y="129.15999999999997" width="105.38" height="44" as="geometry" />
        </mxCell>
        <mxCell id="ofFDjcfbIGw3xVgY4F3X-1569" value="&lt;span style=&quot;background-color: initial;&quot;&gt;(4) Melaksanakan tugas Iain dari pimpinan SPI&amp;nbsp;&lt;br&gt;&lt;/span&gt;" style="rounded=1;fillColor=#F5BD84;strokeColor=none;strokeWidth=3;shadow=0;html=1;fontColor=#000000;whiteSpace=wrap;" parent="ofFDjcfbIGw3xVgY4F3X-1570" vertex="1">
          <mxGeometry x="360" y="209.57000000000005" width="230" height="30.43" as="geometry" />
        </mxCell>
        <mxCell id="xDNytKt1A_5V0aNAH69Z-1585" value="" style="rounded=1;whiteSpace=wrap;html=1;fontSize=18;strokeColor=none;fillColor=#fad7ac;fontColor=#000000;" parent="1" vertex="1">
          <mxGeometry x="-480" y="-252" width="920" height="272" as="geometry" />
        </mxCell>
        <mxCell id="xDNytKt1A_5V0aNAH69Z-1570" value="(1) Merencakan, menyiapkan, melaksanakan keg. audit yg mencakup:&lt;br&gt;&lt;font style=&quot;font-size: 10px;&quot;&gt;&lt;br&gt;&lt;br&gt;&lt;br&gt;&lt;br&gt;&lt;br&gt;&lt;br&gt;&lt;br&gt;&lt;br&gt;&lt;br&gt;&lt;br&gt;&lt;br&gt;&lt;br&gt;&lt;br&gt;&lt;/font&gt;" style="rounded=1;fillColor=#F5BD84;strokeColor=none;strokeWidth=3;shadow=0;html=1;fontColor=#000000;whiteSpace=wrap;" parent="1" vertex="1">
          <mxGeometry x="-460" y="-234.75" width="270" height="236.75" as="geometry" />
        </mxCell>
        <mxCell id="xDNytKt1A_5V0aNAH69Z-1574" value="(2) Menyusun instrumen audit" style="rounded=1;fillColor=#F5BD84;strokeColor=none;strokeWidth=3;shadow=0;html=1;fontColor=#000000;whiteSpace=wrap;" parent="1" vertex="1">
          <mxGeometry x="-180" y="-234.75" width="133.5" height="40" as="geometry" />
        </mxCell>
        <mxCell id="xDNytKt1A_5V0aNAH69Z-1575" value="(3) Menyusun kerangka acuan kerja (term of reference)" style="rounded=1;fillColor=#F5BD84;strokeColor=none;strokeWidth=3;shadow=0;html=1;fontColor=#000000;whiteSpace=wrap;" parent="1" vertex="1">
          <mxGeometry x="-180" y="-189.25" width="133.5" height="50" as="geometry" />
        </mxCell>
        <mxCell id="xDNytKt1A_5V0aNAH69Z-1576" value="(4) Melakukan proses rekrutmen dan seleksi calon auditor" style="rounded=1;fillColor=#F5BD84;strokeColor=none;strokeWidth=3;shadow=0;html=1;fontColor=#000000;whiteSpace=wrap;" parent="1" vertex="1">
          <mxGeometry x="-180" y="-134.25" width="133.5" height="50" as="geometry" />
        </mxCell>
        <mxCell id="xDNytKt1A_5V0aNAH69Z-1577" value="(5)&amp;nbsp;&lt;span style=&quot;background-color: initial;&quot;&gt;Melakukan proses penetapan auditor SPI&lt;br&gt;&lt;/span&gt;" style="rounded=1;fillColor=#F5BD84;strokeColor=none;strokeWidth=3;shadow=0;html=1;fontColor=#000000;whiteSpace=wrap;" parent="1" vertex="1">
          <mxGeometry x="-180" y="-77" width="130" height="46.75" as="geometry" />
        </mxCell>
        <mxCell id="xDNytKt1A_5V0aNAH69Z-1578" value="(6)&amp;nbsp;&lt;span style=&quot;background-color: initial;&quot;&gt;Mereviu kertas kerja dan laporan audit&lt;br&gt;&lt;/span&gt;" style="rounded=1;fillColor=#F5BD84;strokeColor=none;strokeWidth=3;shadow=0;html=1;fontColor=#000000;whiteSpace=wrap;" parent="1" vertex="1">
          <mxGeometry x="-40" y="-234.75" width="120" height="41.75" as="geometry" />
        </mxCell>
        <mxCell id="xDNytKt1A_5V0aNAH69Z-1579" value="(7) Mengkoordinasikan penyusunan laporan audit dan menyampaikan LHA,&amp;nbsp;rekomendasi perbaikan (management letter), dan tindak lanjut kpd pimpinan SPI" style="rounded=1;fillColor=#F5BD84;strokeColor=none;strokeWidth=3;shadow=0;html=1;fontColor=#000000;whiteSpace=wrap;" parent="1" vertex="1">
          <mxGeometry x="-40" y="-186.38" width="120" height="140" as="geometry" />
        </mxCell>
        <mxCell id="xDNytKt1A_5V0aNAH69Z-1580" value="(8)&amp;nbsp;&lt;span style=&quot;background-color: initial;&quot;&gt;Melakukan pemantauan, pengecekan, dan pendampingan atas pelaksanaan tindak lanjut (corrective action) atas hasil audit internal&lt;br&gt;&lt;/span&gt;" style="rounded=1;fillColor=#F5BD84;strokeColor=none;strokeWidth=3;shadow=0;html=1;fontColor=#000000;whiteSpace=wrap;" parent="1" vertex="1">
          <mxGeometry x="85" y="-234.25" width="163" height="100" as="geometry" />
        </mxCell>
        <mxCell id="xDNytKt1A_5V0aNAH69Z-1581" value="&lt;span style=&quot;background-color: initial;&quot;&gt;(9) Audit internal (no.8):&amp;nbsp;&lt;/span&gt;&lt;span style=&quot;background-color: initial;&quot;&gt;kegiatan pemberian keyakinan (assurance activities) dan konsultasi (consulting activities) untuk meningkatkan kualitas operasional organisasi yang menjadi auditan&lt;br&gt;&lt;/span&gt;" style="rounded=1;fillColor=#F5BD84;strokeColor=none;strokeWidth=3;shadow=0;html=1;fontColor=#000000;whiteSpace=wrap;" parent="1" vertex="1">
          <mxGeometry x="85" y="-128" width="163" height="120" as="geometry" />
        </mxCell>
        <mxCell id="xDNytKt1A_5V0aNAH69Z-1582" value="11.&amp;nbsp;&lt;span style=&quot;background-color: initial;&quot;&gt;Melaporkan seluruh pelaksanaan tugas dan tanggungjawabnya kepada Ketua SPI secara berkala&lt;br&gt;&lt;/span&gt;" style="rounded=1;fillColor=#F5BD84;strokeColor=none;strokeWidth=3;shadow=0;html=1;fontColor=#000000;whiteSpace=wrap;" parent="1" vertex="1">
          <mxGeometry x="254" y="-148.25" width="160" height="70" as="geometry" />
        </mxCell>
        <mxCell id="xDNytKt1A_5V0aNAH69Z-1583" value="&lt;span style=&quot;background-color: initial;&quot;&gt;12.&amp;nbsp;&lt;/span&gt;&lt;span style=&quot;background-color: initial;&quot;&gt;Melaksanakan tugas lain dari pimpinan SPI&lt;br&gt;&lt;/span&gt;" style="rounded=1;fillColor=#F5BD84;strokeColor=none;strokeWidth=3;shadow=0;html=1;fontColor=#000000;whiteSpace=wrap;" parent="1" vertex="1">
          <mxGeometry x="254" y="-72.25" width="160" height="60" as="geometry" />
        </mxCell>
        <mxCell id="xDNytKt1A_5V0aNAH69Z-1584" value="10.&amp;nbsp;&lt;span style=&quot;background-color: initial;&quot;&gt;Melakukan pemantauan atas pelaksanaan tindak lanjut temuan dan rekomendasi audit eksternal&lt;br&gt;&lt;/span&gt;" style="rounded=1;fillColor=#F5BD84;strokeColor=none;strokeWidth=3;shadow=0;html=1;fontColor=#000000;whiteSpace=wrap;" parent="1" vertex="1">
          <mxGeometry x="254" y="-233.25" width="160" height="80" as="geometry" />
        </mxCell>
        <mxCell id="ofFDjcfbIGw3xVgY4F3X-1573" value="&lt;span style=&quot;background-color: initial; font-size: 8px;&quot;&gt;a. &lt;b&gt;audit ketaatan &lt;/b&gt;(&lt;i&gt;compliance audit&lt;/i&gt;) terhadap ketentuan dan peraturan (&lt;i&gt;law and regulations&lt;/i&gt;)&lt;br style=&quot;font-size: 8px;&quot;&gt;&lt;/span&gt;" style="rounded=1;fillColor=#F5CBA2;strokeColor=none;strokeWidth=3;shadow=0;html=1;fontColor=#000000;whiteSpace=wrap;fontSize=8;" parent="1" vertex="1">
          <mxGeometry x="-450" y="-188" width="170" height="30" as="geometry" />
        </mxCell>
        <mxCell id="ofFDjcfbIGw3xVgY4F3X-1576" value="&lt;span style=&quot;background-color: initial; font-size: 8px;&quot;&gt;b. &lt;b&gt;audit keuangan&lt;/b&gt; (&lt;i&gt;financial audit&lt;/i&gt;) atas pos tertentu u/ mendukung audit lap. keu&lt;br style=&quot;font-size: 8px;&quot;&gt;&lt;/span&gt;" style="rounded=1;fillColor=#F5CBA2;strokeColor=none;strokeWidth=3;shadow=0;html=1;fontColor=#000000;whiteSpace=wrap;fontSize=8;" parent="1" vertex="1">
          <mxGeometry x="-450" y="-152" width="170" height="28" as="geometry" />
        </mxCell>
        <mxCell id="ofFDjcfbIGw3xVgY4F3X-1577" value="&lt;span style=&quot;background-color: initial;&quot;&gt;&lt;br style=&quot;font-size: 8px;&quot;&gt;&lt;/span&gt;" style="rounded=1;fillColor=#F5CBA2;strokeColor=none;strokeWidth=3;shadow=0;html=1;fontColor=#000000;whiteSpace=wrap;fontSize=8;" parent="1" vertex="1">
          <mxGeometry x="-450" y="-117" width="170" height="109" as="geometry" />
        </mxCell>
        <mxCell id="ofFDjcfbIGw3xVgY4F3X-1578" value="&lt;span style=&quot;background-color: initial; font-size: 8px;&quot;&gt;d. &lt;b&gt;audit sistem informasi manajemen&lt;/b&gt;&lt;br style=&quot;font-size: 8px;&quot;&gt;&lt;/span&gt;" style="rounded=1;fillColor=#F5CBA2;strokeColor=none;strokeWidth=3;shadow=0;html=1;fontColor=#000000;whiteSpace=wrap;fontSize=8;" parent="1" vertex="1">
          <mxGeometry x="-274" y="-188" width="74" height="30" as="geometry" />
        </mxCell>
        <mxCell id="ofFDjcfbIGw3xVgY4F3X-1579" value="&lt;span style=&quot;background-color: initial; font-size: 8px;&quot;&gt;e. &lt;b&gt;audit khusus&lt;/b&gt;, terutama atas instruksi Rektor&lt;br style=&quot;font-size: 8px;&quot;&gt;&lt;/span&gt;" style="rounded=1;fillColor=#F5CBA2;strokeColor=none;strokeWidth=3;shadow=0;html=1;fontColor=#000000;whiteSpace=wrap;fontSize=8;" parent="1" vertex="1">
          <mxGeometry x="-274" y="-154" width="74" height="32" as="geometry" />
        </mxCell>
        <mxCell id="ofFDjcfbIGw3xVgY4F3X-1580" value="&lt;span style=&quot;background-color: initial; font-size: 8px;&quot;&gt;f. &lt;b&gt;audit pasif &lt;/b&gt;(&lt;i&gt;desk audit&lt;/i&gt;) terhadap laporan aktivitas manajemen&lt;br style=&quot;font-size: 8px;&quot;&gt;&lt;/span&gt;" style="rounded=1;fillColor=#F5CBA2;strokeColor=none;strokeWidth=3;shadow=0;html=1;fontColor=#000000;whiteSpace=wrap;fontSize=8;" parent="1" vertex="1">
          <mxGeometry x="-273.38" y="-117" width="73.38" height="49" as="geometry" />
        </mxCell>
        <mxCell id="ofFDjcfbIGw3xVgY4F3X-1583" value="c.&amp;nbsp;&lt;b&gt;audit operasional&lt;/b&gt;&amp;nbsp;u/ mengukur tingkat efisiensi, keefektifan (&lt;i&gt;operational and cost effectiveness),&amp;nbsp;&lt;/i&gt;dan&lt;span style=&quot;background-color: initial;&quot;&gt;&lt;br style=&quot;font-size: 8px;&quot;&gt;&lt;/span&gt;" style="rounded=1;fillColor=#F5CBA2;strokeColor=#F5BD84;strokeWidth=2;shadow=0;html=1;fontColor=#000000;whiteSpace=wrap;fontSize=8;" parent="1" vertex="1">
          <mxGeometry x="-442" y="-111" width="155" height="34" as="geometry" />
        </mxCell>
        <mxCell id="ofFDjcfbIGw3xVgY4F3X-1584" value="&lt;span style=&quot;background-color: initial;&quot;&gt;&lt;b&gt;management audit&lt;/b&gt; u/ menilai pelaksanaan kegiatan manajemen dalam mencapai misi, tujuan, dan strategi yang ditetapkan serta tingkat operasional luar biasa yang diharapkan.&amp;nbsp;&lt;br style=&quot;font-size: 8px;&quot;&gt;&lt;/span&gt;" style="rounded=1;fillColor=#F5CBA2;strokeColor=#F5BD84;strokeWidth=2;shadow=0;html=1;fontColor=#000000;whiteSpace=wrap;fontSize=8;" parent="1" vertex="1">
          <mxGeometry x="-442" y="-71" width="155" height="56" as="geometry" />
        </mxCell>
        <mxCell id="ofFDjcfbIGw3xVgY4F3X-1602" value="" style="group" parent="1" vertex="1" connectable="0">
          <mxGeometry x="-1509" y="614" width="650" height="296" as="geometry" />
        </mxCell>
        <mxCell id="ofFDjcfbIGw3xVgY4F3X-1587" value="" style="rounded=1;whiteSpace=wrap;html=1;fontSize=18;strokeColor=none;fillColor=#fad9d5;container=0;" parent="ofFDjcfbIGw3xVgY4F3X-1602" vertex="1">
          <mxGeometry width="650" height="296" as="geometry" />
        </mxCell>
        <mxCell id="ofFDjcfbIGw3xVgY4F3X-1588" value="(1) SPI memanfaatkan teknologi informasi dan komunikasi dalam mengembangkan dan menerapkan sistem informasi pengawasan internal UT" style="rounded=1;fillColor=#F8B9A6;strokeColor=none;strokeWidth=3;shadow=0;html=1;whiteSpace=wrap;" parent="ofFDjcfbIGw3xVgY4F3X-1602" vertex="1">
          <mxGeometry x="16.5" y="7.719424460431655" width="253.5" height="66.81294964028777" as="geometry" />
        </mxCell>
        <mxCell id="ofFDjcfbIGw3xVgY4F3X-1599" value="(6) Pemeliharaan sistem informasi pengawasan dilakukan secara berkala oleh &lt;span style=&quot;background-color: rgb(245, 175, 88);&quot;&gt;PJ Bid. Organisasi, Sistem Pengawasan, Sistem Teknologi Informasi &amp;amp; Komunikasi Pengawasan, &amp;amp; Pengembangan SDM&lt;/span&gt;" style="rounded=1;fillColor=#F8B9A6;strokeColor=none;strokeWidth=3;shadow=0;html=1;whiteSpace=wrap;fontColor=#000000;" parent="ofFDjcfbIGw3xVgY4F3X-1602" vertex="1">
          <mxGeometry x="460" y="9.753093525179944" width="173.5" height="138.41726618705036" as="geometry" />
        </mxCell>
        <mxCell id="ofFDjcfbIGw3xVgY4F3X-1589" value="&lt;span style=&quot;background-color: initial;&quot;&gt;(2) Sistem informasi pengawasan SPI dirancang, dibuat, diterapkan, dan dikembangkan secara berkelanjutan oleh suatu tim yang dikoordinasikan oleh &lt;/span&gt;&lt;span style=&quot;background-color: rgb(245, 175, 88);&quot;&gt;PJ Bid. Organisasi, Sistem Pengawasan, Sistem Teknologi Informasi &amp;amp; Komunikasi Pengawasan, &amp;amp; Pengembangan SDM&lt;/span&gt;" style="rounded=1;fillColor=#F8B9A6;strokeColor=none;strokeWidth=3;shadow=0;html=1;whiteSpace=wrap;" parent="ofFDjcfbIGw3xVgY4F3X-1602" vertex="1">
          <mxGeometry x="16.5" y="82.34762589928062" width="253.5" height="119.95453237410072" as="geometry" />
        </mxCell>
        <mxCell id="ofFDjcfbIGw3xVgY4F3X-1593" value="&lt;span style=&quot;background-color: initial;&quot;&gt;(3) Sistem informasi pengawasan dikembangkan untuk menunjang dan memudahkan dalam proses perencanaan, pelaksanaan, dan pelaporan hasil pengawasan&lt;br&gt;&lt;/span&gt;" style="rounded=1;fillColor=#F8B9A6;strokeColor=none;strokeWidth=3;shadow=0;html=1;whiteSpace=wrap;" parent="ofFDjcfbIGw3xVgY4F3X-1602" vertex="1">
          <mxGeometry x="16.5" y="210.8201438848921" width="253.5" height="76.66187050359713" as="geometry" />
        </mxCell>
        <mxCell id="ofFDjcfbIGw3xVgY4F3X-1591" value="&lt;span style=&quot;background-color: initial;&quot;&gt;(4) Perancangan dan penngembangan sistem informasi pengawasan mempertimbangkan segi keamanan, sumber daya yang ada, dan keefektifan&lt;br&gt;&lt;/span&gt;" style="rounded=1;fillColor=#F8B9A6;strokeColor=none;strokeWidth=3;shadow=0;html=1;whiteSpace=wrap;" parent="ofFDjcfbIGw3xVgY4F3X-1602" vertex="1">
          <mxGeometry x="280" y="7.453237410071942" width="170" height="99.02158273381295" as="geometry" />
        </mxCell>
        <mxCell id="ofFDjcfbIGw3xVgY4F3X-1592" value="&lt;span style=&quot;background-color: initial;&quot;&gt;(5) Perancangan dan pengembangan sistem informasi dan komunikasi pengawasan dilakukan dengan cara menghimpun, menyimpan, dan mengelola data serta informasi berbasis komputer dan manual sehingga dapat menyediakan informasi keluaran yang bernilai atas kegiatan pengawasan&lt;br&gt;&lt;/span&gt;" style="rounded=1;fillColor=#F8B9A6;strokeColor=none;strokeWidth=3;shadow=0;html=1;whiteSpace=wrap;" parent="ofFDjcfbIGw3xVgY4F3X-1602" vertex="1">
          <mxGeometry x="280" y="112.86330935251799" width="170" height="174.61870503597123" as="geometry" />
        </mxCell>
        <mxCell id="ofFDjcfbIGw3xVgY4F3X-1600" value="(7) Sistem informasi dan komunikasi pengawasan SPI berupa situs dan aplikasi pengawasan SPI untuk menunjang dan mendukung pelaksanaan keg. &lt;span style=&quot;background-color: rgb(100, 187, 226);&quot;&gt;audit, reviu, evaluasi, dan monitoring&lt;/span&gt;&amp;nbsp;" style="rounded=1;fillColor=#F8B9A6;strokeColor=none;strokeWidth=3;shadow=0;html=1;whiteSpace=wrap;fontColor=#000000;" parent="ofFDjcfbIGw3xVgY4F3X-1602" vertex="1">
          <mxGeometry x="460" y="156.15597122302157" width="173.5" height="123.87280575539569" as="geometry" />
        </mxCell>
        <mxCell id="ofFDjcfbIGw3xVgY4F3X-1603" value="" style="group" parent="1" vertex="1" connectable="0">
          <mxGeometry x="-1720" y="650" width="163" height="160" as="geometry" />
        </mxCell>
        <mxCell id="ofFDjcfbIGw3xVgY4F3X-1590" value="&lt;span style=&quot;background-color: initial;&quot;&gt;3. Mengkoordinasikan pelaksanaan kegiatan e-LHKPN UT yang meliputi:&lt;br&gt;&lt;br&gt;&lt;br&gt;&lt;br&gt;&lt;br&gt;&lt;br&gt;&lt;br&gt;&amp;nbsp;&lt;br&gt;&lt;/span&gt;" style="rounded=1;fillColor=#F8B9A6;strokeColor=none;strokeWidth=3;shadow=0;html=1;whiteSpace=wrap;" parent="ofFDjcfbIGw3xVgY4F3X-1603" vertex="1">
          <mxGeometry width="163" height="160" as="geometry" />
        </mxCell>
        <mxCell id="ofFDjcfbIGw3xVgY4F3X-1594" value="&lt;span style=&quot;background-color: initial; font-size: 8px;&quot;&gt;1. mendaftarkan/&lt;br&gt;mengaktifkan akun wajib lapor&lt;br style=&quot;font-size: 8px;&quot;&gt;&lt;/span&gt;" style="rounded=1;fillColor=#fad9d5;strokeColor=none;strokeWidth=3;shadow=0;html=1;whiteSpace=wrap;fontSize=8;" parent="ofFDjcfbIGw3xVgY4F3X-1603" vertex="1">
          <mxGeometry x="8.5" y="60.15999999999997" width="70" height="39.84" as="geometry" />
        </mxCell>
        <mxCell id="ofFDjcfbIGw3xVgY4F3X-1595" value="&lt;span style=&quot;background-color: initial; font-size: 8px;&quot;&gt;2. memberikan formulir e-LHKPN kpd Wajib Lapor (WL)&lt;br style=&quot;font-size: 8px;&quot;&gt;&lt;/span&gt;" style="rounded=1;fillColor=#fad9d5;strokeColor=none;strokeWidth=3;shadow=0;html=1;whiteSpace=wrap;fontSize=8;" parent="ofFDjcfbIGw3xVgY4F3X-1603" vertex="1">
          <mxGeometry x="8.5" y="105.07999999999993" width="70" height="39.84" as="geometry" />
        </mxCell>
        <mxCell id="ofFDjcfbIGw3xVgY4F3X-1596" value="&lt;span style=&quot;background-color: initial; font-size: 8px;&quot;&gt;4. memastikan status pelaporan WL pada kantor KPK&lt;br style=&quot;font-size: 8px;&quot;&gt;&lt;/span&gt;" style="rounded=1;fillColor=#fad9d5;strokeColor=none;strokeWidth=3;shadow=0;html=1;whiteSpace=wrap;fontSize=8;" parent="ofFDjcfbIGw3xVgY4F3X-1603" vertex="1">
          <mxGeometry x="88.5" y="105.07999999999993" width="70" height="39.84" as="geometry" />
        </mxCell>
        <mxCell id="ofFDjcfbIGw3xVgY4F3X-1597" value="&lt;span style=&quot;background-color: initial; font-size: 8px;&quot;&gt;3. mengirimkan berkas laporan WL ke KPK&lt;br style=&quot;font-size: 8px;&quot;&gt;&lt;/span&gt;" style="rounded=1;fillColor=#fad9d5;strokeColor=none;strokeWidth=3;shadow=0;html=1;whiteSpace=wrap;fontSize=8;" parent="ofFDjcfbIGw3xVgY4F3X-1603" vertex="1">
          <mxGeometry x="88.5" y="60.15999999999997" width="70" height="39.84" as="geometry" />
        </mxCell>
        <mxCell id="liw1aRFWl_uPh4_dRd6R-1543" value="" style="group" vertex="1" connectable="0" parent="1">
          <mxGeometry x="-1489" y="1006" width="630" height="150" as="geometry" />
        </mxCell>
        <mxCell id="ofFDjcfbIGw3xVgY4F3X-1605" value="" style="rounded=1;whiteSpace=wrap;html=1;fontSize=18;strokeColor=none;fillColor=#fad9d5;container=0;" parent="liw1aRFWl_uPh4_dRd6R-1543" vertex="1">
          <mxGeometry width="630" height="150" as="geometry" />
        </mxCell>
        <mxCell id="ofFDjcfbIGw3xVgY4F3X-1622" value="&lt;div&gt;(2) Pemeliharaan website dilakukan berkala setiap satu minggu sekali oleh ICT SPI di bawah tanggung jawab &lt;span style=&quot;background-color: rgb(245, 175, 88);&quot;&gt;PJ Bidang Organisasi, Sistem Pengawasan, Sistem Informasi &amp;amp; Komunikasi Pengawasan, dan Pengembangan SDM.&amp;nbsp;&lt;/span&gt;&lt;/div&gt;" style="rounded=1;fillColor=#F8B9A6;strokeColor=none;strokeWidth=3;shadow=0;html=1;whiteSpace=wrap;" parent="liw1aRFWl_uPh4_dRd6R-1543" vertex="1">
          <mxGeometry x="186" y="12.289999999999964" width="210" height="125.42" as="geometry" />
        </mxCell>
        <mxCell id="ofFDjcfbIGw3xVgY4F3X-1624" value="(1) Situs SPI berisikan:&lt;span style=&quot;background-color: initial;&quot;&gt;&lt;br&gt;&lt;br&gt;&lt;br&gt;&lt;br&gt;&lt;br&gt;&lt;br&gt;&lt;br&gt;&amp;nbsp;&lt;br&gt;&lt;/span&gt;" style="rounded=1;fillColor=#F8B9A6;strokeColor=none;strokeWidth=3;shadow=0;html=1;whiteSpace=wrap;" parent="liw1aRFWl_uPh4_dRd6R-1543" vertex="1">
          <mxGeometry x="16" y="10" width="163" height="130" as="geometry" />
        </mxCell>
        <mxCell id="ofFDjcfbIGw3xVgY4F3X-1625" value="&lt;span style=&quot;background-color: initial;&quot;&gt;a. &lt;b&gt;informasi mengenai profil SPI&lt;/b&gt;:&amp;nbsp;&lt;/span&gt;sejarah, visi dan misi, kelembagaan, struktur dan organisasi SPI, serta tugas pokok dan fungsi)&lt;span style=&quot;background-color: initial;&quot;&gt;&lt;br style=&quot;font-size: 8px;&quot;&gt;&lt;/span&gt;" style="rounded=1;fillColor=#fad9d5;strokeColor=none;strokeWidth=3;shadow=0;html=1;whiteSpace=wrap;fontSize=8;" parent="liw1aRFWl_uPh4_dRd6R-1543" vertex="1">
          <mxGeometry x="22.5" y="38.66000000000008" width="70" height="95.92" as="geometry" />
        </mxCell>
        <mxCell id="ofFDjcfbIGw3xVgY4F3X-1626" value="&lt;span style=&quot;background-color: initial;&quot;&gt;b. aturan yang berlaku&lt;br style=&quot;font-size: 8px;&quot;&gt;&lt;/span&gt;" style="rounded=1;fillColor=#fad9d5;strokeColor=none;strokeWidth=3;shadow=0;html=1;whiteSpace=wrap;fontSize=8;" parent="liw1aRFWl_uPh4_dRd6R-1543" vertex="1">
          <mxGeometry x="102.5" y="38.66000000000008" width="70" height="21.34" as="geometry" />
        </mxCell>
        <mxCell id="ofFDjcfbIGw3xVgY4F3X-1627" value="&lt;span style=&quot;background-color: initial;&quot;&gt;d. informasi aktual lain yang berkaitan dg kegiatan SPI&lt;br style=&quot;font-size: 8px;&quot;&gt;&lt;/span&gt;" style="rounded=1;fillColor=#fad9d5;strokeColor=none;strokeWidth=3;shadow=0;html=1;whiteSpace=wrap;fontSize=8;" parent="liw1aRFWl_uPh4_dRd6R-1543" vertex="1">
          <mxGeometry x="102.5" y="87.97000000000003" width="70" height="29.72" as="geometry" />
        </mxCell>
        <mxCell id="ofFDjcfbIGw3xVgY4F3X-1628" value="&lt;span style=&quot;background-color: initial;&quot;&gt;c. arsip dokumentasi&lt;br style=&quot;font-size: 8px;&quot;&gt;&lt;/span&gt;" style="rounded=1;fillColor=#fad9d5;strokeColor=none;strokeWidth=3;shadow=0;html=1;whiteSpace=wrap;fontSize=8;" parent="liw1aRFWl_uPh4_dRd6R-1543" vertex="1">
          <mxGeometry x="102.5" y="64" width="70" height="21.18" as="geometry" />
        </mxCell>
        <mxCell id="liw1aRFWl_uPh4_dRd6R-1542" value="(3) Pemberian akses atas pemanfaatan website SPI merupakan kewenangan Ketua SPI.&amp;nbsp;" style="rounded=1;fillColor=#F8B9A6;strokeColor=none;strokeWidth=3;shadow=0;html=1;whiteSpace=wrap;" vertex="1" parent="liw1aRFWl_uPh4_dRd6R-1543">
          <mxGeometry x="406" y="11.159999999999968" width="210" height="125.42" as="geometry" />
        </mxCell>
        <mxCell id="liw1aRFWl_uPh4_dRd6R-1606" value="" style="group" vertex="1" connectable="0" parent="1">
          <mxGeometry x="-1490" y="1257" width="613" height="503" as="geometry" />
        </mxCell>
        <mxCell id="liw1aRFWl_uPh4_dRd6R-1545" value="" style="rounded=1;whiteSpace=wrap;html=1;fontSize=18;strokeColor=none;fillColor=#fad9d5;container=0;" vertex="1" parent="liw1aRFWl_uPh4_dRd6R-1606">
          <mxGeometry width="613" height="503" as="geometry" />
        </mxCell>
        <mxCell id="liw1aRFWl_uPh4_dRd6R-1546" value="&lt;div&gt;&lt;span style=&quot;background-color: initial;&quot;&gt;(1) Aplikasi pengawasan adalah suatu perangkat lunak (software) atau program komputer yang beroperasi untuk mendukung pelaksanaan kegiataan &lt;/span&gt;&lt;span style=&quot;background-color: rgb(100, 187, 226);&quot;&gt;audit, reviu, evaluasi dan monitoring&lt;/span&gt;&lt;span style=&quot;background-color: initial;&quot;&gt;.&amp;nbsp;&lt;/span&gt;&lt;br&gt;&lt;/div&gt;" style="rounded=1;fillColor=#F8B9A6;strokeColor=none;strokeWidth=3;shadow=0;html=1;whiteSpace=wrap;" vertex="1" parent="liw1aRFWl_uPh4_dRd6R-1606">
          <mxGeometry x="15" y="11.160000000000082" width="423" height="58.84" as="geometry" />
        </mxCell>
        <mxCell id="liw1aRFWl_uPh4_dRd6R-1598" value="" style="group" vertex="1" connectable="0" parent="liw1aRFWl_uPh4_dRd6R-1606">
          <mxGeometry x="18" y="76" width="418" height="313" as="geometry" />
        </mxCell>
        <mxCell id="liw1aRFWl_uPh4_dRd6R-1552" value="(2) Penerapan aplikasi pengawasan SPI terutama digunakan dalam:&lt;br&gt;&lt;br&gt;&lt;br&gt;&lt;br&gt;&lt;br&gt;&lt;br&gt;&lt;br&gt;&lt;br&gt;&lt;br&gt;&lt;br&gt;&lt;br&gt;&lt;br&gt;&lt;br&gt;&lt;br&gt;&lt;br&gt;&lt;br&gt;&lt;br&gt;&lt;br&gt;&lt;br&gt;" style="rounded=1;fillColor=#F8B9A6;strokeColor=none;strokeWidth=3;shadow=0;html=1;whiteSpace=wrap;" vertex="1" parent="liw1aRFWl_uPh4_dRd6R-1598">
          <mxGeometry width="418" height="313" as="geometry" />
        </mxCell>
        <mxCell id="liw1aRFWl_uPh4_dRd6R-1557" value="&lt;span style=&quot;background-color: initial;&quot;&gt;a.&amp;nbsp;&lt;/span&gt;&lt;span style=&quot;background-color: initial;&quot;&gt;Pembuatan dan penerbitan surat tugas audit;&amp;nbsp;&lt;br&gt;&lt;/span&gt;" style="rounded=1;fillColor=#fad9d5;strokeColor=none;strokeWidth=3;shadow=0;html=1;whiteSpace=wrap;fontSize=8;" vertex="1" parent="liw1aRFWl_uPh4_dRd6R-1598">
          <mxGeometry x="11" y="36" width="192" height="18" as="geometry" />
        </mxCell>
        <mxCell id="liw1aRFWl_uPh4_dRd6R-1558" value="&lt;span style=&quot;background-color: initial;&quot;&gt;b.&amp;nbsp;&lt;/span&gt;&lt;span style=&quot;background-color: initial;&quot;&gt;Koordinasi dengan auditan dalam penetapan jadwal audit;&amp;nbsp;&lt;br&gt;&lt;/span&gt;" style="rounded=1;fillColor=#fad9d5;strokeColor=none;strokeWidth=3;shadow=0;html=1;whiteSpace=wrap;fontSize=8;" vertex="1" parent="liw1aRFWl_uPh4_dRd6R-1598">
          <mxGeometry x="11" y="57" width="192" height="23" as="geometry" />
        </mxCell>
        <mxCell id="liw1aRFWl_uPh4_dRd6R-1560" value="&lt;span style=&quot;background-color: initial;&quot;&gt;c.&amp;nbsp;&lt;/span&gt;&lt;span style=&quot;background-color: initial;&quot;&gt;Pembuatan berita acara pemeriksaan kas yang dilakukan pada saat audit;&amp;nbsp;&lt;br&gt;&lt;/span&gt;" style="rounded=1;fillColor=#fad9d5;strokeColor=none;strokeWidth=3;shadow=0;html=1;whiteSpace=wrap;fontSize=8;" vertex="1" parent="liw1aRFWl_uPh4_dRd6R-1598">
          <mxGeometry x="11" y="84" width="192" height="27" as="geometry" />
        </mxCell>
        <mxCell id="liw1aRFWl_uPh4_dRd6R-1574" value="" style="group" vertex="1" connectable="0" parent="liw1aRFWl_uPh4_dRd6R-1598">
          <mxGeometry x="11" y="115" width="192" height="183" as="geometry" />
        </mxCell>
        <mxCell id="liw1aRFWl_uPh4_dRd6R-1561" value="&lt;span style=&quot;background-color: initial;&quot;&gt;d.&amp;nbsp;&lt;/span&gt;&lt;span style=&quot;background-color: initial;&quot;&gt;Pembuatan dan pendokumentasian KDA yang berisi:&amp;nbsp;&lt;br&gt;&lt;br&gt;&lt;br&gt;&lt;br&gt;&lt;br&gt;&lt;br&gt;&lt;br&gt;&lt;br&gt;&lt;br&gt;&lt;br&gt;&lt;br&gt;&lt;br&gt;&lt;br&gt;&lt;br&gt;&lt;br&gt;&lt;br&gt;&lt;/span&gt;" style="rounded=1;fillColor=#fad9d5;strokeColor=none;strokeWidth=3;shadow=0;html=1;whiteSpace=wrap;fontSize=8;" vertex="1" parent="liw1aRFWl_uPh4_dRd6R-1574">
          <mxGeometry width="192" height="183" as="geometry" />
        </mxCell>
        <mxCell id="liw1aRFWl_uPh4_dRd6R-1563" value="&lt;span style=&quot;background-color: initial;&quot;&gt;&lt;div&gt;deskripsi temuan (dilengkapi dengan fasilitas kode temuan untuk analisis data hasil temuan berdasarkan pengelompokan),&amp;nbsp;&lt;/div&gt;&lt;/span&gt;" style="rounded=1;fillColor=#FAD9D5;strokeColor=#BAA29F;strokeWidth=3;shadow=0;html=1;whiteSpace=wrap;fontSize=8;" vertex="1" parent="liw1aRFWl_uPh4_dRd6R-1574">
          <mxGeometry x="7.905882352941177" y="35" width="81.31764705882352" height="86" as="geometry" />
        </mxCell>
        <mxCell id="liw1aRFWl_uPh4_dRd6R-1565" value="&lt;span style=&quot;background-color: initial;&quot;&gt;&lt;div&gt;kriteria/ persyaratan yang dilanggar,&amp;nbsp;&lt;/div&gt;&lt;/span&gt;" style="rounded=1;fillColor=#FAD9D5;strokeColor=#BAA29F;strokeWidth=3;shadow=0;html=1;whiteSpace=wrap;fontSize=8;" vertex="1" parent="liw1aRFWl_uPh4_dRd6R-1574">
          <mxGeometry x="7.905882352941177" y="128" width="81.31764705882352" height="36" as="geometry" />
        </mxCell>
        <mxCell id="liw1aRFWl_uPh4_dRd6R-1567" value="&lt;span style=&quot;background-color: initial;&quot;&gt;&lt;div&gt;akar penyebab&lt;/div&gt;&lt;/span&gt;" style="rounded=1;fillColor=#FAD9D5;strokeColor=#BAA29F;strokeWidth=3;shadow=0;html=1;whiteSpace=wrap;fontSize=8;" vertex="1" parent="liw1aRFWl_uPh4_dRd6R-1574">
          <mxGeometry x="95.43529411764706" y="35" width="85.27058823529411" height="15" as="geometry" />
        </mxCell>
        <mxCell id="liw1aRFWl_uPh4_dRd6R-1568" value="&lt;span style=&quot;background-color: initial;&quot;&gt;&lt;div&gt;akibat&lt;/div&gt;&lt;/span&gt;" style="rounded=1;fillColor=#FAD9D5;strokeColor=#BAA29F;strokeWidth=3;shadow=0;html=1;whiteSpace=wrap;fontSize=8;" vertex="1" parent="liw1aRFWl_uPh4_dRd6R-1574">
          <mxGeometry x="95.43529411764706" y="56" width="85.27058823529411" height="15" as="geometry" />
        </mxCell>
        <mxCell id="liw1aRFWl_uPh4_dRd6R-1569" value="&lt;span style=&quot;background-color: initial;&quot;&gt;&lt;div&gt;rekomendasi&lt;/div&gt;&lt;/span&gt;" style="rounded=1;fillColor=#FAD9D5;strokeColor=#BAA29F;strokeWidth=3;shadow=0;html=1;whiteSpace=wrap;fontSize=8;" vertex="1" parent="liw1aRFWl_uPh4_dRd6R-1574">
          <mxGeometry x="95.43529411764706" y="77" width="85.27058823529411" height="15" as="geometry" />
        </mxCell>
        <mxCell id="liw1aRFWl_uPh4_dRd6R-1570" value="&lt;span style=&quot;background-color: initial;&quot;&gt;&lt;div&gt;tanggapan auditan&lt;/div&gt;&lt;/span&gt;" style="rounded=1;fillColor=#FAD9D5;strokeColor=#BAA29F;strokeWidth=3;shadow=0;html=1;whiteSpace=wrap;fontSize=8;" vertex="1" parent="liw1aRFWl_uPh4_dRd6R-1574">
          <mxGeometry x="95.43529411764706" y="98" width="85.27058823529411" height="15" as="geometry" />
        </mxCell>
        <mxCell id="liw1aRFWl_uPh4_dRd6R-1571" value="&lt;span style=&quot;background-color: initial;&quot;&gt;&lt;div&gt;rencana tindak lanjut perbaikan&lt;/div&gt;&lt;/span&gt;" style="rounded=1;fillColor=#FAD9D5;strokeColor=#BAA29F;strokeWidth=3;shadow=0;html=1;whiteSpace=wrap;fontSize=8;" vertex="1" parent="liw1aRFWl_uPh4_dRd6R-1574">
          <mxGeometry x="95.43529411764706" y="117" width="85.27058823529411" height="27" as="geometry" />
        </mxCell>
        <mxCell id="liw1aRFWl_uPh4_dRd6R-1572" value="&lt;span style=&quot;background-color: initial;&quot;&gt;&lt;div&gt;rencana tanggal penyelesaian&lt;/div&gt;&lt;/span&gt;" style="rounded=1;fillColor=#FAD9D5;strokeColor=#BAA29F;strokeWidth=3;shadow=0;html=1;whiteSpace=wrap;fontSize=8;" vertex="1" parent="liw1aRFWl_uPh4_dRd6R-1574">
          <mxGeometry x="95.43529411764706" y="149" width="85.27058823529411" height="27" as="geometry" />
        </mxCell>
        <mxCell id="liw1aRFWl_uPh4_dRd6R-1595" value="" style="group" vertex="1" connectable="0" parent="liw1aRFWl_uPh4_dRd6R-1598">
          <mxGeometry x="213" y="35" width="194" height="266" as="geometry" />
        </mxCell>
        <mxCell id="liw1aRFWl_uPh4_dRd6R-1575" value="&lt;span style=&quot;background-color: initial;&quot;&gt;e.&amp;nbsp;&lt;/span&gt;&lt;span style=&quot;background-color: initial;&quot;&gt;Penilaian kinerja tim audit oleh auditan;&amp;nbsp;&lt;br&gt;&lt;/span&gt;" style="rounded=1;fillColor=#fad9d5;strokeColor=none;strokeWidth=3;shadow=0;html=1;whiteSpace=wrap;fontSize=8;" vertex="1" parent="liw1aRFWl_uPh4_dRd6R-1595">
          <mxGeometry width="192" height="17" as="geometry" />
        </mxCell>
        <mxCell id="liw1aRFWl_uPh4_dRd6R-1581" value="&lt;span style=&quot;background-color: initial;&quot;&gt;f.&amp;nbsp;&lt;/span&gt;&lt;span style=&quot;background-color: initial;&quot;&gt;Penilaian ketua tim audit oleh Pengendali teknis;&amp;nbsp;&lt;br&gt;&lt;/span&gt;" style="rounded=1;fillColor=#fad9d5;strokeColor=none;strokeWidth=3;shadow=0;html=1;whiteSpace=wrap;fontSize=8;" vertex="1" parent="liw1aRFWl_uPh4_dRd6R-1595">
          <mxGeometry y="20" width="192" height="17" as="geometry" />
        </mxCell>
        <mxCell id="liw1aRFWl_uPh4_dRd6R-1582" value="&lt;span style=&quot;background-color: initial;&quot;&gt;g.&amp;nbsp;&lt;/span&gt;&lt;span style=&quot;background-color: initial;&quot;&gt;Penilaian anggota tim audit oleh ketua tim;&amp;nbsp;&lt;br&gt;&lt;/span&gt;" style="rounded=1;fillColor=#fad9d5;strokeColor=none;strokeWidth=3;shadow=0;html=1;whiteSpace=wrap;fontSize=8;" vertex="1" parent="liw1aRFWl_uPh4_dRd6R-1595">
          <mxGeometry y="40" width="192" height="17" as="geometry" />
        </mxCell>
        <mxCell id="liw1aRFWl_uPh4_dRd6R-1583" value="&lt;span style=&quot;background-color: initial;&quot;&gt;h.&amp;nbsp;&lt;/span&gt;&lt;span style=&quot;background-color: initial;&quot;&gt;Penilaian Sistem Pengendalian Manajemen auditan yang dilakukan oleh tim audit;&lt;/span&gt;&lt;span style=&quot;background-color: initial;&quot;&gt;&lt;br&gt;&lt;/span&gt;" style="rounded=1;fillColor=#fad9d5;strokeColor=none;strokeWidth=3;shadow=0;html=1;whiteSpace=wrap;fontSize=8;" vertex="1" parent="liw1aRFWl_uPh4_dRd6R-1595">
          <mxGeometry y="60" width="192" height="28" as="geometry" />
        </mxCell>
        <mxCell id="liw1aRFWl_uPh4_dRd6R-1584" value="&lt;span style=&quot;background-color: initial;&quot;&gt;i.&amp;nbsp;&lt;/span&gt;&lt;span style=&quot;background-color: initial;&quot;&gt;Penyusunan dan pendokumentasian LHA;&amp;nbsp;&lt;br&gt;&lt;/span&gt;" style="rounded=1;fillColor=#fad9d5;strokeColor=none;strokeWidth=3;shadow=0;html=1;whiteSpace=wrap;fontSize=8;" vertex="1" parent="liw1aRFWl_uPh4_dRd6R-1595">
          <mxGeometry y="91" width="192" height="17" as="geometry" />
        </mxCell>
        <mxCell id="liw1aRFWl_uPh4_dRd6R-1585" value="&lt;span style=&quot;background-color: initial;&quot;&gt;j.&amp;nbsp;&lt;/span&gt;&lt;span style=&quot;background-color: initial;&quot;&gt;Pendokumentasian bahan pendukung audit seperti Daftar Hadir Rapat Pembukaan atau Penutupan Audit, dan PKA;&amp;nbsp;&lt;br&gt;&lt;/span&gt;" style="rounded=1;fillColor=#fad9d5;strokeColor=none;strokeWidth=3;shadow=0;html=1;whiteSpace=wrap;fontSize=8;" vertex="1" parent="liw1aRFWl_uPh4_dRd6R-1595">
          <mxGeometry y="111" width="192" height="33" as="geometry" />
        </mxCell>
        <mxCell id="liw1aRFWl_uPh4_dRd6R-1586" value="&lt;span style=&quot;background-color: initial;&quot;&gt;k.&amp;nbsp;&lt;/span&gt;&lt;span style=&quot;background-color: initial;&quot;&gt;Penyelesaian tindak Ianjut temuan hasil audit oleh auditan;&amp;nbsp;&lt;br&gt;&lt;/span&gt;" style="rounded=1;fillColor=#fad9d5;strokeColor=none;strokeWidth=3;shadow=0;html=1;whiteSpace=wrap;fontSize=8;" vertex="1" parent="liw1aRFWl_uPh4_dRd6R-1595">
          <mxGeometry x="2" y="147" width="192" height="23" as="geometry" />
        </mxCell>
        <mxCell id="liw1aRFWl_uPh4_dRd6R-1587" value="&lt;span style=&quot;background-color: initial;&quot;&gt;l.&amp;nbsp;&lt;/span&gt;&lt;span style=&quot;background-color: initial;&quot;&gt;Rekapitulasi dan hasil penghitungan temuan audit, rekapitulasi kinerja tim audit oleh auditan, dan rekapitulasi penilaian kinerja ketua tim audit oleh Dalnis serta rekapitulasi penilaian anggota tim oleh ketua tim;&amp;nbsp;&lt;br&gt;&lt;/span&gt;" style="rounded=1;fillColor=#fad9d5;strokeColor=none;strokeWidth=3;shadow=0;html=1;whiteSpace=wrap;fontSize=8;" vertex="1" parent="liw1aRFWl_uPh4_dRd6R-1595">
          <mxGeometry x="2" y="173" width="192" height="51" as="geometry" />
        </mxCell>
        <mxCell id="liw1aRFWl_uPh4_dRd6R-1588" value="&lt;span style=&quot;background-color: initial;&quot;&gt;m.&amp;nbsp;&lt;/span&gt;&lt;span style=&quot;background-color: initial;&quot;&gt;Rekapitulasi penilaian SPM auditan oleh auditor;&amp;nbsp;&lt;br&gt;&lt;/span&gt;" style="rounded=1;fillColor=#fad9d5;strokeColor=none;strokeWidth=3;shadow=0;html=1;whiteSpace=wrap;fontSize=8;" vertex="1" parent="liw1aRFWl_uPh4_dRd6R-1595">
          <mxGeometry x="2" y="227" width="192" height="17" as="geometry" />
        </mxCell>
        <mxCell id="liw1aRFWl_uPh4_dRd6R-1589" value="&lt;span style=&quot;background-color: initial;&quot;&gt;n. Menyediakan data dan informasi untuk analisis statistik kegiatan audit.&amp;nbsp;&lt;br&gt;&lt;/span&gt;" style="rounded=1;fillColor=#fad9d5;strokeColor=none;strokeWidth=3;shadow=0;html=1;whiteSpace=wrap;fontSize=8;" vertex="1" parent="liw1aRFWl_uPh4_dRd6R-1595">
          <mxGeometry x="2" y="249" width="192" height="17" as="geometry" />
        </mxCell>
        <mxCell id="liw1aRFWl_uPh4_dRd6R-1601" value="&lt;div&gt;&lt;div&gt;(3) Data dan informasi pada aplikasi pengawasan merupakan rahasia negara yang wajib dilindungi kerahasiaannya, oleh karena itu akses ke dalam aplikasi pengawasan bersifat terbatas.&amp;nbsp;&lt;/div&gt;&lt;/div&gt;" style="rounded=1;fillColor=#F8B9A6;strokeColor=none;strokeWidth=3;shadow=0;html=1;whiteSpace=wrap;" vertex="1" parent="liw1aRFWl_uPh4_dRd6R-1606">
          <mxGeometry x="13" y="397" width="423" height="50" as="geometry" />
        </mxCell>
        <mxCell id="liw1aRFWl_uPh4_dRd6R-1602" value="&lt;div&gt;(4) Pemberian akses atas pemanfaatan aplikasi pengawasan merupakan kewenangan Ketua SPI.&amp;nbsp;&lt;/div&gt;" style="rounded=1;fillColor=#F8B9A6;strokeColor=none;strokeWidth=3;shadow=0;html=1;whiteSpace=wrap;" vertex="1" parent="liw1aRFWl_uPh4_dRd6R-1606">
          <mxGeometry x="13" y="453" width="423" height="34" as="geometry" />
        </mxCell>
        <mxCell id="liw1aRFWl_uPh4_dRd6R-1603" value="&lt;div&gt;(5) Ketua SPI dapat memberikan akses terhadap aplikasi pengawasan kepada auditor atau Tim Auditor SPI atau pihak lain yang sedang melakukan tugas audit atau tugas lain yang relevan di lingkungan UT.&amp;nbsp;&lt;/div&gt;" style="rounded=1;fillColor=#F8B9A6;strokeColor=none;strokeWidth=3;shadow=0;html=1;whiteSpace=wrap;" vertex="1" parent="liw1aRFWl_uPh4_dRd6R-1606">
          <mxGeometry x="443" y="94" width="154" height="143" as="geometry" />
        </mxCell>
        <mxCell id="liw1aRFWl_uPh4_dRd6R-1604" value="&lt;div&gt;(6) Pihak-pihak yang ingin melakukan akses ke dalam aplikasi pengawasan di luar tugas sebagaimana dimaksud ayat (5) wajib mengajukan ijin secara tertulis kepada Ketua SPI&amp;nbsp;&lt;/div&gt;" style="rounded=1;fillColor=#F8B9A6;strokeColor=none;strokeWidth=3;shadow=0;html=1;whiteSpace=wrap;" vertex="1" parent="liw1aRFWl_uPh4_dRd6R-1606">
          <mxGeometry x="443" y="242.83999999999992" width="154" height="109" as="geometry" />
        </mxCell>
        <mxCell id="liw1aRFWl_uPh4_dRd6R-1605" value="&lt;div&gt;(7) Pengembangan dan penyempurnaan sistem informasi &amp;amp; komunikasi pengawasan akan dilakukan secara berkelanjutan sesuai dengan perkembangan kebutuhan dan peningkatan kualitas pengawasan SPI.&amp;nbsp;&lt;/div&gt;" style="rounded=1;fillColor=#F8B9A6;strokeColor=none;strokeWidth=3;shadow=0;html=1;whiteSpace=wrap;" vertex="1" parent="liw1aRFWl_uPh4_dRd6R-1606">
          <mxGeometry x="443" y="357.8399999999999" width="154" height="135" as="geometry" />
        </mxCell>
      </root>
    </mxGraphModel>
  </diagram>
</mxfile>
